<?xml version="1.0" encoding="utf-8"?>
<!-- Generator: Adobe Illustrator 23.0.4, SVG Export Plug-In . SVG Version: 6.00 Build 0)  -->
<svg version="1.1" id="レイヤー_1" xmlns="http://www.w3.org/2000/svg" xmlns:xlink="http://www.w3.org/1999/xlink" x="0px"
	 y="0px" viewBox="0 0 190 50" style="enable-background:new 0 0 190 50;" xml:space="preserve">
<style type="text/css">
	.st0{fill:#23234B;}
</style>
<g>
	<g>
		<path class="st0" d="M55.7,43.8c-1.1,0-2.3-0.6-2.4-3.4V24.1c0-3.6-2.1-5.9-5.2-5.9c-2,0-3.8,0.9-5.4,2.1c0.9-0.6,2-1,2.9-1
			c1.5,0,2.4,1.1,2.4,3.4V39c0,3.6,2,5.9,5.2,5.9c1.9,0,3.6-0.8,5.1-1.8C57.5,43.4,56.6,43.8,55.7,43.8z"/>
		<circle class="st0" cx="50.1" cy="9.1" r="3.5"/>
	</g>
	<g>
		<path class="st0" d="M186.4,43.8c-1.1,0-2.3-0.6-2.4-3.4V24.1c0-3.6-2.1-5.9-5.2-5.9c-2,0-3.8,0.9-5.4,2.1c0.9-0.6,2-1,2.9-1
			c1.5,0,2.4,1.1,2.4,3.4V39c0,3.6,2,5.9,5.2,5.9c1.9,0,3.6-0.8,5.1-1.8C188.1,43.4,187.2,43.8,186.4,43.8z"/>
		<circle class="st0" cx="180.7" cy="9.1" r="3.5"/>
	</g>
	<g>
		<path class="st0" d="M127.9,18.5c-0.9,0.3-1.1,1.2-1.1,2.4v19.6c0,1.3,0.3,2.2,0.8,2.8c0.4,0.4,0.9,0.6,1.5,0.6
			c0.8,0,1.8-0.3,2.6-0.8c-1.5,1-3.2,1.8-5.1,1.8c-2.6,0-5.2-1.7-5.2-4.6v-14C121.6,21.2,124.4,19.3,127.9,18.5z"/>
		<path class="st0" d="M109.7,36.2c-1.3-5.5-0.2-12,2.5-15.4c1.3-1.6,2.9-2.5,4.6-2.6c-0.5,0-0.9-0.1-1.4-0.1c-3.7,0-7,1.6-9.3,4.4
			c-2.6,3.2-3.4,7.7-2.4,12.2c1.4,6.2,6,10.3,11.3,10.3c3.1,0,5.1-1.5,6.5-3c-1.3,1.3-2.8,1.9-4.5,1.9
			C113.5,43.9,110.8,41.1,109.7,36.2z"/>
	</g>
	<g>
		<path class="st0" d="M29.5,44c-1,0-2-0.4-2.6-1.5L17.7,28C23.3,25.2,28,21.1,28,16c0-2.1-1.5-3.8-3.5-3.8c-1.9,0-3.5,1.6-3.5,3.5
			s1.6,3.5,3.5,3.5c0.3,0,0.6,0,0.8-0.1c-0.6,5.2-7.2,9-13.1,10.7c1.1-0.1,1.4,0,1.7,0.5l7.5,12c1.1,1.9,3,2.7,5.2,2.7
			c1.8,0,3.1-0.5,4.4-1.4C30.5,43.8,30,44,29.5,44z"/>
		<path class="st0" d="M10.8,40.4V5L1.1,6.2c1.8,0,2.8,0.4,3.5,1c0.6,0.7,0.9,1.7,0.9,3.1v30c0,2.7-0.8,3.5-2.8,3.9h11
			C11.7,43.8,10.8,43,10.8,40.4z"/>
	</g>
	<g>
		<path class="st0" d="M88.2,18.1c-3.7,0-6.7,3-7.8,7.6c0.8-2.8,3-4.7,4.7-4.9C85,21,85,21.3,85,21.6c0,1.9,1.6,3.5,3.5,3.5
			s3.5-1.6,3.5-3.5C91.9,19.6,90.3,18.1,88.2,18.1z"/>
		<path class="st0" d="M78.9,40.4V24c0-1.8-0.5-3.4-1.6-4.4c-0.9-0.9-2.2-1.4-3.7-1.4c-2,0-3.9,1-5.6,2.2c0.9-0.6,2-1.1,3.1-1.1
			c1.6,0,2.5,1.1,2.5,3.4v17.8c0,2.7-0.8,3.5-2.9,3.9h2.9h5.3l0,0h2.9C79.8,43.8,78.9,43,78.9,40.4z"/>
	</g>
	<g>
		<path class="st0" d="M159.9,18.1c-3.7,0-6.7,3-7.8,7.6c0.8-2.8,3-4.7,4.7-4.9c-0.1,0.3-0.1,0.5-0.1,0.8c0,1.9,1.6,3.5,3.5,3.5
			s3.5-1.6,3.5-3.5C163.6,19.6,162,18.1,159.9,18.1z"/>
		<path class="st0" d="M150.7,40.4V24c0-1.8-0.5-3.4-1.6-4.4c-0.9-0.9-2.2-1.4-3.7-1.4c-2,0-3.9,1-5.6,2.2c0.9-0.6,2-1.1,3.1-1.1
			c1.6,0,2.5,1.1,2.5,3.4v17.8c0,2.7-0.8,3.5-2.9,3.9h2.9h5.3l0,0h2.9C151.5,43.8,150.7,43,150.7,40.4z"/>
	</g>
</g>
</svg>
