<?xml version="1.0" encoding="utf-8"?>
<!-- Generator: Adobe Illustrator 23.0.4, SVG Export Plug-In . SVG Version: 6.00 Build 0)  -->
<svg version="1.1" id="レイヤー_1" xmlns="http://www.w3.org/2000/svg" xmlns:xlink="http://www.w3.org/1999/xlink" x="0px"
	 y="0px" viewBox="0 0 320 70" style="enable-background:new 0 0 320 70;" xml:space="preserve">
<style type="text/css">
	.st0{fill:#23234B;}
</style>
<g>
	<path class="st0" d="M1.8,59.2c6.3,0,6.9-1.8,7-6.9L8.7,19.8c0-5.1-0.7-6.9-7.1-6.9v-0.5h21.8v0.5c-6.3,0-7.4,1.8-7.4,7L16.2,59
		h4.9c13.1,0,16.8-6.3,18.6-15.2l0.4,0.1l-0.9,15.8H1.8V59.2z"/>
	<path class="st0" d="M43.6,40.9c-2.7-11.6,5.6-19.6,15.7-19.6c6.4,0,11.1,3.3,12.1,7.7c2.1,8.9-13.2,8.9-21,8.1
		c0.1,1.8,0.4,3.4,0.7,5.1c1.4,5.8,4.7,10.2,10.5,10.2c5.6,0,9.1-4.1,10.8-7.7l0.5,0.2c-2,3.8-5.8,9-13.8,9
		C50.6,53.9,45.3,48,43.6,40.9z M50.5,36.5c7.2,0.5,16.2-0.4,14.1-9.4c-0.7-3.1-2.3-5.3-5.5-5.3C53.3,21.8,50.4,29,50.5,36.5z"/>
	<path class="st0" d="M83.2,55.6L83,33.4h-5.5v-0.8h5.6L83,24.5l6.8-1.1v9.3h9.3v0.8h-9.3l0.1,22.8c0,3.8,1.4,6.1,4.4,6.1
		c2.8,0,5-2.2,6.5-4.2l0.4,0.3c-2.2,2.8-5,5.9-9.9,5.9C86.5,64.4,83.2,61.4,83.2,55.6z"/>
	<path class="st0" d="M105.7,28.2c4.4-1.7,7.9-5.6,8.1-9.7c-0.4,0.2-1,0.4-1.5,0.4c-2.5,0-4.6-2-5.1-4.2c-0.6-2.4,0.9-4.3,3.6-4.3
		c2.6,0,4.9,1.8,5.5,4.7c1,4.2-1.8,10.4-10.3,13.6L105.7,28.2z"/>
	<path class="st0" d="M113.2,55.7c-0.5-1.9,0.4-4.3,2.9-4.6c2.1-0.2,4,1.3,4.5,3.3c0.5,1.9-0.5,3.6-2.2,4c1.4,2.1,3.7,3.9,8.1,3.4
		c5.6-0.6,8.1-3.9,7.3-7.2c-1.7-7.3-17.2-4.2-19.5-13.8c-1.3-5.3,2.9-10.2,10.6-11c7.4-0.7,12,3,12.8,6.3c0.5,2-0.4,4.2-2.7,4.4
		c-2.1,0.2-3.9-1.2-4.4-3.2c-0.4-1.8,0.5-3.3,2.1-3.7c-1.2-1.9-3.2-3.7-7.3-3.3c-5,0.5-7.5,3.7-6.8,6.8c1.7,7.2,17.5,4.2,19.8,13.8
		c1.4,5.8-3.4,10.7-11.4,11.5C119,63,114,59.1,113.2,55.7z"/>
	<path class="st0" d="M173.8,59.4c6.3,0,7.4-1.8,7.4-7L181,13.3h-0.5c-12.3,0-14.4,7.4-16.5,15.7l-0.5-0.1l1.3-16.2h39.7l1.4,16.2
		l-0.4,0.1c-2.2-8.3-4.3-15.7-16.6-15.7h-0.5l0.2,39.1c0,5.3,1.1,7,7.4,7v0.5h-22.2L173.8,59.4z"/>
	<path class="st0" d="M206,50.5c-2.4-10.4,3.8-20.1,14.1-20.1c4.1,0,7.5,1.6,9.3,3.9l5.8-3.2h0.5l0.3,26.2c0,2.3,0.8,3.8,2.6,3.8
		s3.8-1.4,4.9-2.2v0.5c-2.4,1.9-4.9,3.5-7.9,3.5c-3.3,0-5.7-1.9-6.3-5c-2,2.8-5.1,5.2-9.5,5.2C213.1,63,207.7,57.8,206,50.5z
		 M229,56.9l-0.1-19.3c-0.2-3.2-2.8-6.6-6.8-6.6c-7.4,0-10.6,12.1-8.5,21.1c1.2,4.9,3.9,9,8.6,9C225.3,61.2,227.5,59.3,229,56.9z"/>
	<path class="st0" d="M248.1,49l-0.2-37.8c0-3.8-1.7-4.7-5.6-4.7V6l12.4-1.5l0.2,46.3c0,2.3,0.8,3.8,2.6,3.8c1.8,0,3.7-1.4,4.9-2.2
		v0.5c-2.4,1.9-5,3.5-8,3.5C250.6,56.3,248.1,53.4,248.1,49z"/>
	<path class="st0" d="M270.5,20.3c0-3.8-1.7-4.7-5.6-4.7v-0.5l12.4-1.5l0.1,35.7c6.9-1,13.3-3.4,14.7-7.8c-2.2-0.2-4.8-1.7-5.4-4.2
		c-0.5-2.3,0.9-4.1,3.4-4.1c2.8,0,4.8,2.4,5.4,4.6c0.8,3.4-1.9,7.4-9,10l9.1,14.6c0.5,0.9,1.3,1.6,2.6,1.6c1.8,0,3.5-1.6,4.3-2.2
		v0.5c-2.8,2.2-4.7,3.5-7.8,3.5c-2.8,0-4.7-1.1-6.1-3.4l-8.1-13.1c-0.9,0.2-2,0.5-3.1,0.5l0.1,15.1h-6.9L270.5,20.3z"/>
	<path class="st0" d="M309.5,52.5c-0.6-2.4,0.9-4.6,3.4-5.1c2.4-0.4,4.7,1,5.3,3.4c0.6,2.4-0.8,4.8-3.2,5.2
		C312.5,56.5,310.1,54.9,309.5,52.5z M309.6,13.8c-0.3-3.3,1.3-5.8,3.9-6.3c2.2-0.4,4.1,0.9,4.6,3.1c1.1,4.4-3.3,11.6-3.8,31.1
		l-0.6,0.1C312.8,25.1,309.8,17.9,309.6,13.8z"/>
</g>
</svg>
