<?xml version="1.0" encoding="utf-8"?>
<!-- Generator: Adobe Illustrator 23.0.4, SVG Export Plug-In . SVG Version: 6.00 Build 0)  -->
<svg version="1.1" id="レイヤー_1" xmlns="http://www.w3.org/2000/svg" xmlns:xlink="http://www.w3.org/1999/xlink" x="0px"
	 y="0px" viewBox="0 0 420 60" style="enable-background:new 0 0 420 60;" xml:space="preserve">
<style type="text/css">
	.st0{fill:#23234B;}
	.st1{fill:#53C47F;}
</style>
<g>
	<g>
		<path class="st0" d="M279.5,49.9c-0.9,0-2.9-1.3-4.4-3.1c-1.3-1.5-1.5-2-1.5-3.7c0-1.1,0.2-2,0.7-2c0.2,0,0.2,0.2,0.4,0.4
			c0.7,1.8,2.2,2.9,3.5,2.9c2.4,0,9.7-4.4,18.2-11.4c4.2-3.3,8.4-7,11.2-9.9c1.1-1.1,4.4-4.8,4.8-5.7c0.7-0.9,0.7-0.9,1.1-0.9
			c0.2,0,0.4,0.2,0.4,0.7c0,0.9-2.6,5.1-5.5,8.6c-3.5,4.4-7.7,8.8-12.8,13c-4.4,3.7-6.8,5.5-14.1,9.9
			C280.9,49.5,280.2,49.9,279.5,49.9z"/>
	</g>
	<g>
		<path class="st0" d="M341.4,45.5c-4.4,2.4-9.7,4.6-12.1,4.6c-0.4,0-0.9-0.2-0.9-0.7c0-0.2,0.2-0.2,0.4-0.4
			c3.3-0.9,8.8-3.7,12.3-6.4c5.3-4.2,9.2-8.6,11.7-13c2.2-4.2,3.1-6.4,3.1-7.5s-0.7-1.5-2-1.5s-7.7,0.9-10.3,1.3
			c-3.7,0.7-8.4,2-10.3,2.6c-0.4,0.2-0.7,0.2-0.9,0.2c-0.7,0-2-0.7-3.5-2.2c-0.9-0.9-1.5-2.4-1.5-3.7c0-0.4,0.2-0.9,0.4-0.9
			c0.2,0,0.2,0,0.4,0.4c0.4,1.1,2.6,2.2,5.1,2c0.9,0,0.9,0,8.1-0.9c4.8-0.4,7.7-0.9,8.6-0.9c3.1-0.4,3.5-0.7,6.6-1.8
			c0.4-0.2,0.9-0.2,1.1-0.2c1.1,0,5.5,3.3,5.5,4.4c0,0.4-0.2,0.7-2.2,2.2C354.8,35,349.9,40.5,341.4,45.5z M350.6,10.8
			c-0.2,0-1.8,0.2-4,0.7c-4,0.7-7,1.1-9,1.1c-2.2,0-3.5-0.4-4.6-2.2c-0.4-0.7-1.1-2.2-1.1-2.6c0-0.2,0.2-0.2,0.2-0.2s0.2,0,0.2,0.2
			c0.7,1.1,2,1.5,4.2,1.5c4.2,0,11-1.3,13.9-2.4c1.8-0.7,1.8-0.7,2.2-0.7c0.7,0,1.1,0.2,3.1,1.1c1.1,0.7,1.5,1.1,1.5,1.8
			s-0.4,1.1-2.6,1.1c-1.1,0.2-2.2,0.2-3.1,0.4L350.6,10.8z"/>
	</g>
	<g>
		<path class="st0" d="M239.5,32.5c0.2,1.3,0.7,2.6,0.9,4c0.7,2.4,1.1,4.8,1.3,5.5c0.7,2,1.1,4,1.5,6.2c0.2,1.1,0.4,2.2,0.4,2.6
			c0,1.1-0.9,2.2-2,2.2c-0.9,0-2-0.4-2.9-1.3c-0.9-0.9-1.1-1.8-1.3-3.5c-0.4-5.7-1.1-11.7-2-16.7c-8.8,2.6-11.2,3.5-13.4,4.6
			c-0.9,0.4-1.3,0.7-1.8,0.7c-1.1,0-2.2-0.7-5.1-2.6c-1.3-0.9-1.5-1.3-1.5-1.8c0-0.2,0.2-0.4,0.4-0.4c0,0,0.2,0,0.2,0.2
			c0.9,0.4,2.4,0.9,3.5,0.9c2.4,0,3.5-0.2,17.4-3.5c-0.2-0.7-0.2-1.1-0.2-1.1l-0.4-2.4l-0.4-2.9c0-0.2-0.2-0.7-0.2-1.3
			c-1.8,0.7-2.2,0.7-4.6,1.5c-2.2,0.7-3.3,0.9-4.4,0.9c-1.8,0-2.6-0.2-4.6-1.8c-1.5-1.1-1.5-1.3-1.5-1.5s0.2-0.4,0.2-0.4h0.2
			c0.9,0.4,2.6,0.9,4,0.9c2,0,5.5-0.7,10.6-2.2c-0.7-3.7-1.3-7.3-2-8.1c-0.7-1.5-2-2.6-3.3-2.4h-0.4h-0.2c-0.2,0-0.4-0.2-0.4-0.4
			s0.2-0.4,1.1-1.1c1.1-0.7,1.8-1.1,2.6-1.1c0.9,0,2,0.2,4,1.1c1.5,0.7,1.8,0.9,1.8,1.5c0,0.2,0,0.2-0.2,1.5
			c-0.2,0.7-0.4,2.2-0.4,3.5c0,1.5,0,2.4,0.4,4.8c4.2-1.3,5.1-1.5,7.5-3.3c0.9-0.7,1.3-0.7,1.8-0.7c0.4,0,1.8,0.4,3.1,0.9
			c1.1,0.4,1.5,0.9,1.5,1.5c0,0.7-0.2,0.7-2.2,1.1c-1.3,0.2-4.6,1.1-11.4,3.1c0.7,4,1.1,6.4,1.5,7.9c3.7-0.9,7.7-2,11.7-3.1
			c2.6-1.5,3.5-2,4.2-2s3.1,1.1,4.4,1.8c0.9,0.7,1.3,1.1,1.3,1.5c0,0.9-0.4,1.1-2.6,1.1c-3.5,0-9,0.7-18.5,2.4L239.5,32.5z"/>
	</g>
	<g>
		<path class="st0" d="M193.1,30.5c0.3,1.8,0.5,3.4,0.5,3.9c0,3.4-1.6,7.3-3.9,10.5c-1.8,2.4-3.7,3.7-5.2,3.7
			c-0.8,0-1.6-0.5-2.4-1.3c-1-1.3-1.8-2.9-1.8-5.2c0-7.1,6-12.8,13.4-12.8c6.6,0,11,3.9,11,10c0,5.2-3.1,9.4-8.1,11.3
			c-1.6,0.5-3.7,1-4.5,1c-0.3,0-0.5-0.3-0.5-0.3s0-0.3,0.5-0.3c2.4-0.5,4.5-1.6,6.3-3.4c2.4-2.1,3.7-5.5,3.7-9.2
			c0-2.9-1-5.2-2.9-6.6c-1.3-1-3.4-1.6-5.2-1.6h-0.3c0,0,0,0-0.3,0L193.1,30.5z M182.3,42.3c0,2.4,1,4.2,2.1,4.2
			c1.3,0,4.2-2.6,5.8-5.8c1.3-2.6,2.4-6,2.4-7.9c0-0.8-0.3-1.6-0.5-2.1c0-0.3,0-0.3,0-0.3C186.2,31.8,182.3,36.6,182.3,42.3z"/>
	</g>
	<g>
		<path class="st0" d="M4.5,13.6c-0.2,0-0.2,0-0.2,0C4,13.6,4,13.4,4,13.4c0-0.5,1-0.7,2.2-0.7c3.4,0,6.5,2.6,6.5,5.3
			c0,1.2-0.2,2.2-0.7,4.8c-0.7,3.8-1,5.7-1,9.3c0,4.6,1,7.7,2.6,10.3c1,1.4,2.4,2.4,3.4,2.4c0.7,0,1-0.2,2.6-4.1
			c2.6-5.7,3.6-7.7,4.1-7.7c0.2,0,0.5,0.2,0.5,0.5s0,0.2-0.7,2.2c-1.2,3.1-2.2,7.2-2.2,9.1c0,1.4,0.5,2.9,1,3.8
			c0.5,0.5,0.5,0.7,0.5,1c0,0.7-1.2,1.4-2.2,1.4c-1.7,0-4.3-1.2-6.2-2.6c-4.3-3.4-6.7-9.8-6.7-18c0-2.6,0.2-6.2,0.5-9.3
			c0-1,0-1.7,0-2.2C8.1,16.2,6.2,13.6,4.5,13.6L4.5,13.6z M33.5,24.4c-0.5,0-0.7,0-0.7-0.2c0-0.5,1.7-1,3.8-1
			c6.5,0,13.4,6.2,13.4,12.2c0,2.4-1.4,4.1-3.4,4.1c-1,0-1.4-0.5-1.4-1.9c0-4.6-2.2-9.1-5.5-11.3C37.8,24.9,35.9,24.1,33.5,24.4
			L33.5,24.4z"/>
		<path class="st0" d="M111.6,28.7c0,7.2-4.6,12.9-13.2,16.3c-3.6,1.2-11.5,3.1-13.9,3.1c-0.7,0-1.2-0.5-1.2-0.7s0.2-0.2,1.2-0.5
			c13.7-2.4,22-9.6,22-18.4c0-6.7-4.3-10.8-10.8-10.8c-4.6,0-10.5,1.9-15.8,5.3c-2.4,1.4-6,4.1-7.7,5.7c-1.7,1.4-2.2,1.7-3.1,1.7
			c-1.7,0-4.1-1.2-5.5-2.9c-0.7-1-1.2-2.4-1.2-4.6c0-0.7,0-1,0.5-1c0.2,0,0.2,0,0.5,0.2c0.5,1.9,1.9,3.1,4.1,3.1
			c1.2,0,2.2-0.2,5.3-2.2c8.9-5.3,16.3-7.7,23.2-7.9C104.9,15.5,111.4,21,111.6,28.7z"/>
		<path class="st0" d="M145.4,35.6c1.2,0,2.6-0.2,3.1-0.5c0.2-0.2,0.5-0.2,0.5-0.2c0.2,0,1.2,0.7,1.7,1.2s0.7,1,0.7,1.4
			c0,1-1,1.7-2.4,1.7c-2.4,0-4.1,0-6.5-0.5c0,1.4,0,1.9,0,2.9c0,6,3.1,9.6,8.6,9.6c5,0,8.1-3.1,8.1-7.9c0-3.4-1.2-6.9-3.4-9.6
			c-1-1.2-3.4-3.6-4.3-4.3c-0.2-0.2-0.5-0.2-0.5-0.5c0-0.2,0.2-0.2,0.5-0.2c0.7,0,2.9,1.4,4.8,2.9c4.6,3.8,7.2,8.1,7.2,12.7
			c0,6.2-4.6,10.3-11.7,10.5c-3.4,0-6.2-1-8.6-2.9c-2.2-1.9-3.4-4.8-3.4-8.9c0-1.4,0-2.6,0.2-4.6c-4.3-1.2-6.2-2.9-6.2-5.5
			c0-1.9,1.2-3.8,3.1-5.5c1.2-1,2.4-1.7,5.7-3.6c0-0.7,0-0.7,0.2-1.4c-4.6-1.2-6-1.9-7.7-3.8c-0.7-1-1.2-1.9-1.2-3.4
			c0-0.5,0.2-0.7,0.5-0.7c0.2,0,0.2,0,0.5,0.5c0.2,1.4,3.4,3.1,8.6,4.6c0-0.7,0.2-1.4,0.5-2.4c0-0.7,0.2-1.2,0.2-1.7
			c0.5-2.4,0.7-3.6,0.7-4.3c0-2.6-1.2-4.1-3.4-4.6c-0.2,0-0.2-0.2-0.2-0.2c0-0.5,1.9-1.2,2.9-1.2c0.7,0,2.9,1,4.3,2.2
			c1.4,1.2,1.9,1.9,1.9,2.9c0,0.7-0.2,1.4-1.4,4.1c-1.2,2.4-1.7,3.4-2.6,5.7c1,0.2,1.4,0.2,2.4,0.2s1.2,0.2,1.7,0.7s1,1.4,1,1.9
			c0,0.7-0.5,1-1.9,1c-1.7,0-2.6,0.2-5,1c-1.4,6.5-1.4,6.9-1.9,10.8C144.2,35.6,144.6,35.6,145.4,35.6z M142.7,26
			c-4.1,2.6-5.5,4.3-5.5,6.2c0,1.4,1,2.2,3.8,2.9C141.3,33.5,142.3,28.7,142.7,26z"/>
	</g>
	<polygon class="st1" points="283,26.8 285.7,21.6 290.9,18.9 285.7,16.2 283,11 280.4,16.2 275.1,18.9 280.4,21.6 	"/>
	<g>
		<path class="st0" d="M381.4,49.9c-0.9,0-2.9-1.3-4.4-3.1c-1.3-1.5-1.5-2-1.5-3.7c0-1.1,0.2-2,0.7-2c0.2,0,0.2,0.2,0.4,0.4
			c0.7,1.8,2.2,2.9,3.5,2.9c2.4,0,9.7-4.4,18.2-11.4c4.2-3.3,8.4-7,11.2-9.9c1.1-1.1,4.4-4.8,4.8-5.7c0.7-0.9,0.7-0.9,1.1-0.9
			c0.2,0,0.4,0.2,0.4,0.7c0,0.9-2.6,5.1-5.5,8.6c-3.5,4.4-7.7,8.8-12.8,13c-4.4,3.7-6.8,5.5-14.1,9.9
			C382.8,49.5,382.1,49.9,381.4,49.9z"/>
	</g>
	<polygon class="st1" points="384.9,26.8 387.5,21.6 392.8,18.9 387.5,16.2 384.9,11 382.2,16.2 377,18.9 382.2,21.6 	"/>
</g>
</svg>
