<?xml version="1.0" encoding="utf-8"?>
<!-- Generator: Adobe Illustrator 23.0.4, SVG Export Plug-In . SVG Version: 6.00 Build 0)  -->
<svg version="1.1" id="レイヤー_1" xmlns="http://www.w3.org/2000/svg" xmlns:xlink="http://www.w3.org/1999/xlink" x="0px"
	 y="0px" viewBox="0 0 350 80" style="enable-background:new 0 0 350 80;" xml:space="preserve">
<style type="text/css">
	.st0{fill:#23234B;}
	.st1{fill:#363480;}
</style>
<g>
	<g>
		<path class="st0" d="M130.8,42l-2.1-2.2c-2.2,1.8-19.3,3.8-29,4.5v1.3c3.8,0,13.1-0.8,14.8-0.9v8.7h-16V55h16v19.5h2.6V55h16
			l0.2-0.6c-0.6-0.9-1.7-2.4-2.8-3.4l-1.6,2.5H117v-8.9c3.6-0.5,8.4-0.8,12.2-1.6c0.9,0.4,1.7,0.8,2,0.5
			C131.7,43,131.4,42.6,130.8,42z"/>
		<g>
			<path class="st0" d="M259.2,47.3c-0.8-0.7-1.2-1-2.1-1.8l-1.6,1.6h-8.2l-2.7-1.3v10.3h2.3v-0.7h9.2c0,0,0,15.1,0,15.4
				c0,0.7-0.3,0.9-0.7,0.9c-1.5,0-2.8-0.2-3.6-0.4v1.3c1.2,0.3,2.5,0.3,2.7,1.9c3.3-0.2,4-1.8,4-3.7V48.5
				C260,48.3,259.6,47.7,259.2,47.3z M256.1,54.3h-9.2v-2.4h9.2V54.3z M256.1,50.7h-9.2v-2.4h9.2V50.7z"/>
			<path class="st0" d="M257.3,40.4l-1.5,2.1H250v-1.2c0.4-0.2,1.3-0.3,1.3-0.8c0-0.4-0.3-0.5-1-0.5l-2.6-0.1v2.7h-11.2v-1.2
				c0.4-0.2,1.3-0.3,1.3-0.8c0-0.4-0.3-0.5-1-0.5l-2.5-0.1v2.7h-9.6v1.4h9.6v2.2h2.3v-2.2h11.2v2.2h2.3v-2.2h9.6l0.2-0.6
				C259.3,42.4,258.4,41.5,257.3,40.4z"/>
			<path class="st0" d="M237.6,56.2h2.2v-7.7c1.5-0.2,1.1-0.7,0.7-1c-0.7-0.6-1-0.9-1.9-1.6l-1.3,1.3H229l-2.7-1.3v28.6h2.3v-19h9.1
				v0.7H237.6z M237.6,54.3h-9v-2.4h9V54.3z M237.6,50.7h-9v-2.4h9V50.7z"/>
			<path class="st0" d="M252,61.2c-0.6-0.5-0.9-0.8-1.6-1.4l-1.1,1.1H243v-1.6h10.1l0.2-0.5c-0.5-0.7-1.2-1.3-2-2.2l-1.1,1.7H243
				v-1.4c0.4-0.1,1-0.2,1-0.7c0-0.4-0.2-0.5-0.8-0.5l-2-0.1v2.7h-9.8v1h9.8V61h-6l-2.2-0.8v8.6h1.9v-1h3.6c-1.3,1.4-4.3,3.6-8.6,4.9
				l0.4,0.8c3.8-0.9,7.8-2.6,10.8-5.7h0.2V74h1.9v-4.6c3,0.7,4.9,1.7,6,2.8c2,1.8,2.9-0.4,1.4-1.6s-5-1.7-7.5-2.1v-0.7h6.5v0.9h1.9
				v-6.5C252.7,62,252.3,61.5,252,61.2z M234.8,61.9h6.3v2h-6.3V61.9z M234.8,64.8h6.3v2h-6.3V64.8z M249.5,66.8H243v-2h6.5V66.8z
				 M249.5,63.9H243v-2h6.5V63.9z"/>
		</g>
		<path class="st0" d="M301.6,50.5l0.2-0.6c-0.6-0.9-1.7-2.3-2.8-3.4l-1.6,2.5h-12.9c0.1-1.9,0.2-2.5,0.4-7.3
			c0.6-0.2,1.6-0.4,1.6-1.1c0-0.5-0.4-0.5-1.2-0.6l-3.5-0.2c0.1,2.2,0.1,4.3-0.1,9.1h-14.9v1.6h14.8c-1.4,14.5-11.2,21.2-14.8,23.2
			l0.5,0.9c15.2-7.9,16.2-19.2,17.1-24.1h0.3c3,14.1,10.5,21.3,14.9,24l2.8-2.4c-5.2-2.1-13.2-9.7-16.3-21.6H301.6z"/>
		<g>
			<path class="st0" d="M312.1,53.5c1.3-1.3,1.7-3.3,1.7-5.1h26.1c-0.3,1.9-0.8,4.3-1.6,6L339,55l3.9-5.9c1.3,0.2,1-0.6,0.7-1.1
				c-0.7-1.1-1.4-1.9-2.4-3l-1.6,1.8h-6.1c2.3-2.2,3-2.8,4.9-4.7c0.9,0,1.5,0.1,1.6-0.2c0.2-0.4-0.2-0.6-0.9-1l-2.6-1.1
				c-0.4,1.3-2.2,3.7-4.4,7h-4.5c0.4-0.4,0.7-1.2,0.5-2.1c-0.5-3-2.9-4-4.8-5.2l-0.8,0.7c2.9,2.2,2.9,4.2,3.4,5.9
				c0.1,0.3,0.2,0.6,0.4,0.7h-7.1c0.3-0.5,0.5-1.2,0.3-2c-0.6-3-3.1-3.8-5.1-5l-0.8,0.7c3,2.1,3.2,4,3.8,5.7
				c0.1,0.2,0.2,0.4,0.3,0.5h-3.9c0-0.6-0.1-1.1-0.1-1.6h-1.3c0,3.9-0.6,5.6-2.8,7.2C307.8,53.7,309.8,55.9,312.1,53.5z"/>
			<path class="st0" d="M341.3,59.5l-1.5,2.3h-12.2V59c2.5-1.5,6.3-4.1,8.2-5.7c1.5,0.4,1.4-0.5,1.1-0.9c-0.6-1-1.2-1.6-2.1-2.6
				l-1.5,1.6h-19.1v1.4h18.5c-1.5,1.5-3.4,3.5-5.4,5.2l-2.2-0.5v1.3v3H309v1.6h16.2v6c0,1.2,0,2.1-1.4,2.1c-1.6,0-4.4-0.4-6.3-0.8
				V72c2.3,0.4,4.7,0.8,4.9,2.4c3.3-0.1,5.2-1.1,5.2-3.8v-7.3h16.2l0.2-0.6C343.4,61.8,342.4,60.5,341.3,59.5z"/>
		</g>
		<path class="st0" d="M171.7,71.7l1.5-2.3c1.1,1.1,2.1,2.3,2.8,3.3l-0.2,0.6h-35.1v-1.6h16.5V65H143v-1.6h14.1v-5.2h-10.9v1.5h-2.5
			v-19l2.9,1.5h23.1l1.6-1.8c1.1,0.9,1.5,1.2,2.4,2c0.4,0.4,0.9,1.1-0.9,1.3v15.7h-2.5v-1.1h-10.7v5.2h10l1.5-2.2
			c1.1,1.1,2.1,2.2,2.8,3.1l-0.2,0.6h-13.9v6.7H171.7z M146.2,49.5h10.9v-5.6h-10.9V49.5z M146.2,56.7h10.9V51h-10.9V56.7z
			 M170.3,51.1h-10.7v5.7h10.7V51.1z M170.3,43.9h-10.7v5.6h10.7V43.9z"/>
		<g>
			<path class="st0" d="M199.8,41.4c4.3,8.2,10.7,12.7,16.1,15.1l2.2-2.3c-5-1.5-12.7-6.3-17.3-13.1c0.2,0,0.8-0.2,0.8-0.6
				c0-0.5-0.5-0.5-1.2-0.6l-3.4-0.2c-1.4,4-8.1,12.4-14.6,16.5l0.9,0.9C191.2,52.8,198,45.1,199.8,41.4z"/>
			<path class="st0" d="M213.3,71.7h-7.7c1.8-2.6,2.8-4.1,4.4-7.1c0.8,0.1,1.3,0.2,1.5-0.2c0.2-0.4-0.2-0.6-0.8-0.9l-2.5-1.1
				c-0.5,1.8-2.2,5.9-3.9,9.3h-3.2V61.3h14.4l0.2-0.6c-0.7-0.9-1.7-2-2.8-3.1l-1.4,2.2h-10.4v-6h6.2l0.2-0.6c-0.7-0.9-1.7-2-2.8-3.1
				l-1.4,2.2H191v1.6h7.6v6h-14v1.6h14v10.4h-15.3v1.6h34l0.2-0.6c-0.6-0.9-1.7-2.2-2.8-3.3L213.3,71.7z"/>
			<path class="st0" d="M194.6,69c-0.2-3.2-3.6-5.5-5.2-6.7l-0.9,0.6c2.5,2.6,3.4,5.3,3.8,7.2C192.8,72.3,194.8,71.1,194.6,69z"/>
		</g>
	</g>
	<g>
		<path class="st1" d="M61.9,36.3c-0.4-0.4-0.9-0.7-1.3-1c1.7-1.7,3.1-3.4,4-4.9c2.1-3.6,4.6-12.2-2.7-16
			c-6.1-3.2-11.8,0.9-11.8,0.9s1.7-0.2,3.9,0.3c2.2,0.5,5.8,1.8,6.4,8c0.3,3.5-1,6.3-3.4,9.5c-7.5-3.9-15.5-3.9-15.5-3.9l1.5,3.4
			c0,0,4.8-0.6,12.1,2.7c-1.5,1.8-3.4,3.8-5.3,6c0,0,0,0-0.1,0.1c-3.1-2.4-4-4-4-4c-0.5,1.1-1.7,2.5-2.1,2.8c0,0,1.5,1.5,4.2,3.5
			c-3.6,4.6-4.6,7.4-4.9,8.3c-0.3-1-1.2-3.7-4.7-8.1c7.5-5.4,8.7-10.3,8.7-10.3s-0.9-0.3-1.7-0.3c-0.9-0.1-1.6-0.1-1.6-0.1
			s-2.7,5.1-7.3,8.4c-0.1-0.1-0.1-0.1-0.2-0.2c-2-2.3-3.8-4.2-5.3-6c4.1-1.8,7.3-2.4,7.3-2.4L37,30c0,0-3.6,0.4-8.1,3
			c-2.4-3.1-3.7-5.9-3.4-9.4c0.6-6.2,4.2-7.5,6.4-8c2.2-0.5,3.9-0.3,3.9-0.3s-5.6-4.1-11.8-0.9c-7.3,3.8-4.8,12.4-2.7,16
			c0.9,1.5,2.3,3.2,4,4.9c-0.3,0.3-0.6,0.5-0.9,0.8c-6.4,5.4-8.5,12-8.5,12s11.4,3,20.5-2.9c0,0,0,0,0.1,0c3.1,3.1,5.5,6.4,6.1,7.3
			c0.1,0.5,0.2,0.5,0.3,0.4c0.2,0.1,0.3,0,0.3-0.4c0.6-0.8,3.1-4.3,6.3-7.5c0.3,0.2,0.6,0.4,1,0.6c9.1,5.8,19.6,2.9,19.6,2.9
			S68.6,42.1,61.9,36.3z M21.6,47.1c-3.2,0.1-3.2-0.1-3.2-0.1s3-6.5,8.7-9.7c0.1-0.1,0.2-0.1,0.3-0.2c2,1.8,4.1,3.6,6.2,5.3
			c0.2,0.2,0.5,0.4,0.7,0.6C30.2,45.5,25.8,47,21.6,47.1z M64.6,47.1c-4.9-0.1-8.3-1.4-12.7-4.3c0.2-0.2,0.4-0.3,0.6-0.5
			c2.1-1.7,4.2-3.5,6.2-5.3c0.1,0,0.1,0.1,0.2,0.1c5.7,3.3,8.9,9.8,8.9,9.8S67.8,47.2,64.6,47.1z M41,36.4c0,0,0.6-0.8,1-1.4
			c0.4-0.7,0.9-1.3,0.9-1.3s-2.5-4.4-3-9.5c-0.6-5.1-0.3-8.9,1.5-12.8c1.1-2.4,1.9-3.6,1.9-3.6s3.4,5.1,3.5,10.9s-1.4,10.2-1.4,10.2
			l3.4,0.1c0,0,1.6-5.1,0.2-12.4c-1.4-7.3-5.6-11.8-5.6-11.8S36,12,36.8,24.3C37.4,33.9,41,36.4,41,36.4z"/>
		<g>
			<path class="st1" d="M3.8,66.6c-0.2-0.2-0.4-1-0.3-1.7c0.1-0.1,0.3-0.1,0.4-0.1c0.2,0.6,0.8,1.8,2,1.8c0.9,0,1.4-0.5,1.4-1.2
				S7,64.2,6.1,63.7l-0.5-0.3C4.7,62.9,4,62.2,4,61.2c0-1.1,0.8-2.1,2.5-2.1c0.6,0,1,0.1,1.6,0.2c0.1,0.3,0.2,1,0.2,1.6
				C8.2,61,8,61,7.8,60.9c-0.2-0.6-0.6-1.4-1.5-1.4S5,60.1,5,60.7c0,0.5,0.3,1,1.1,1.4l0.7,0.4c0.7,0.4,1.6,1.1,1.6,2.3
				c0,1.3-1,2.2-2.7,2.2C4.7,67,4.1,66.7,3.8,66.6z"/>
			<path class="st1" d="M10.2,60.9c0-1.2-0.1-1.3-0.6-1.3H9.4c-0.1-0.1-0.1-0.3,0-0.3c0.4,0,1,0,1.5,0h2.2c0.7,0,1.4,0,1.6,0
				c0,0.2,0.1,1.1,0.2,1.6c0,0.1-0.3,0.1-0.4,0c-0.2-0.7-0.3-0.9-0.7-1c-0.3-0.1-0.6-0.1-0.9-0.1H12c-0.5,0-0.5,0-0.5,0.7v1.9
				c0,0.3,0,0.3,0.3,0.3h0.6c1,0,1.2,0,1.3-0.5l0.1-0.4c0.1-0.1,0.3-0.1,0.4,0c0,0.3,0,0.7,0,1.1c0,0.4,0,0.8,0,1.2
				c-0.1,0.1-0.3,0.1-0.4,0l-0.1-0.5c-0.1-0.5-0.3-0.5-1.3-0.5h-0.6c-0.3,0-0.3,0-0.3,0.3V65c0,0.6,0,1,0.2,1.2
				c0.1,0.2,0.3,0.2,1.3,0.2c1.5,0,1.7-0.3,2.1-1.2c0.1-0.1,0.3,0,0.4,0.1c-0.1,0.5-0.3,1.4-0.5,1.7c-0.5,0-1.5,0-2.8,0h-1.3
				c-0.5,0-1.2,0-1.7,0c-0.1,0-0.1-0.3,0-0.3h0.4c0.6-0.1,0.6-0.1,0.6-1.3V60.9z"/>
			<path class="st1" d="M23.2,64.9c0,0.3,0,1.8,0,2c-0.1,0.1-0.3,0.2-0.4,0.2c-0.2-0.2-0.5-0.6-1.3-1.6l-2.7-3.1
				c-0.7-0.8-1.1-1.3-1.3-1.4c0,0,0,0.1,0,0.7V64c0,0.9,0,1.9,0.2,2.3c0.1,0.2,0.3,0.3,0.6,0.3h0.2c0.1,0.1,0.1,0.3,0,0.3
				c-0.4,0-0.9,0-1.3,0c-0.5,0-0.8,0-1.2,0c-0.1-0.1-0.1-0.3,0-0.3l0.3-0.1c0.2,0,0.4-0.1,0.5-0.3c0.1-0.4,0.1-1.4,0.1-2.3v-2.7
				c0-0.9,0-1.1-0.4-1.4c-0.1-0.1-0.4-0.2-0.6-0.2h-0.2c-0.1-0.1-0.1-0.3,0-0.3c0.4,0,1.1,0,1.4,0c0.2,0,0.5,0,0.8,0
				c0.2,0.5,1.4,1.9,1.8,2.4l1.1,1.2c0.5,0.5,1.5,1.7,1.7,1.8c0,0,0-0.1,0-0.3v-2.2c0-0.9,0-1.9-0.2-2.3c-0.1-0.2-0.3-0.3-0.6-0.3
				h-0.3c-0.1-0.1-0.1-0.3,0-0.3c0.5,0,0.9,0,1.3,0c0.5,0,0.8,0,1.2,0c0.1,0.1,0.1,0.2,0,0.3l-0.3,0.1c-0.2,0-0.4,0.1-0.5,0.3
				c-0.2,0.3-0.2,1.4-0.2,2.3v2.6H23.2z"/>
			<path class="st1" d="M25.8,61c0-1.1,0-1.2-0.6-1.3h-0.3c-0.1-0.1-0.1-0.3,0-0.3c0.7-0.1,1.7-0.1,2.6-0.1s1.7,0.1,2.2,0.4
				c0.6,0.3,1,0.8,1,1.7c0,1.1-0.8,1.6-1.4,1.8c-0.1,0-0.1,0.1,0,0.2c0.9,1.5,1.5,2.5,2,3c0.3,0.3,0.7,0.3,0.8,0.4
				c0.1,0,0.1,0.2,0,0.2s-0.4,0.1-0.8,0.1c-1.1,0-1.7-0.4-2.4-1.5c-0.3-0.5-0.6-1.1-0.9-1.6c-0.2-0.3-0.3-0.4-0.7-0.4
				c-0.3,0-0.4,0-0.4,0.2v1.5c0,1.2,0.1,1.2,0.6,1.3h0.3c0.1,0.1,0.1,0.3,0,0.3c-0.5,0-1,0-1.5,0s-1,0-1.5,0c-0.1,0-0.1-0.3,0-0.3
				h0.3c0.5-0.1,0.6-0.1,0.6-1.3L25.8,61L25.8,61z M27.1,62.7c0,0.4,0,0.4,0.6,0.4c1.1,0,1.6-0.6,1.6-1.6c0-0.9-0.6-1.7-1.6-1.7
				c-0.6,0-0.6,0-0.6,0.6V62.7z"/>
			<path class="st1" d="M34.7,65.2c0,1.2,0.1,1.2,0.6,1.3h0.3c0.1,0.1,0.1,0.3,0,0.3c-0.5,0-1,0-1.5,0s-1,0-1.5,0
				c-0.1,0-0.1-0.3,0-0.3h0.2c0.5-0.1,0.6-0.1,0.6-1.3v-4.3c0-1.2-0.1-1.2-0.6-1.3h-0.2c-0.1-0.1-0.1-0.3,0-0.3c0.5,0,1,0,1.5,0
				s1,0,1.5,0c0.1,0,0.1,0.2,0,0.3h-0.3c-0.5,0.1-0.6,0.1-0.6,1.3V65.2z"/>
			<path class="st1" d="M41.5,62.2c0,0.3,0,0.5,0.2,0.5s0.5-0.3,0.9-0.7l1.2-1.3c0.1-0.2,0.5-0.5,0.6-0.7c0.2-0.3,0.2-0.4,0.1-0.4
				l-0.4-0.1c-0.1-0.1-0.1-0.2,0-0.3c0.5,0,0.9,0,1.3,0c0.5,0,0.8,0,1.3,0c0.1,0,0.1,0.3,0,0.3c-1.1,0.2-1.4,0.4-2.2,1.2
				c-0.5,0.5-0.9,1-1.4,1.4c-0.1,0.1-0.2,0.2,0,0.4c0.9,1.2,2,2.6,2.8,3.5c0.2,0.3,0.5,0.4,0.8,0.4H47c0.1,0.1,0.1,0.3,0,0.3
				c-0.4,0-0.9,0-1.5,0s-1.1,0-1.6,0c-0.1,0-0.1-0.3,0-0.3h0.3c0.2,0,0.2-0.2,0.1-0.3c-0.5-0.6-1.8-2.5-2.3-2.9
				c-0.1-0.1-0.2-0.2-0.3-0.2c-0.3,0-0.3,0.3-0.3,0.6v1.5c0,1.2,0.1,1.2,0.6,1.3h0.3c0.1,0.1,0.1,0.3,0,0.3c-0.5,0-1,0-1.6,0
				c-0.5,0-1,0-1.5,0c-0.1,0-0.1-0.3,0-0.3h0.2c0.5-0.1,0.6-0.1,0.6-1.3v-4.3c0-1.2-0.1-1.2-0.6-1.3h-0.2c-0.1-0.1-0.1-0.3,0-0.3
				c0.5,0,1,0,1.5,0s1,0,1.5,0c0.1,0,0.1,0.3,0,0.3H42c-0.5,0.1-0.6,0.1-0.6,1.3v1.4H41.5z"/>
			<path class="st1" d="M49.4,65.2c0,1.2,0.1,1.2,0.6,1.3h0.3c0.1,0.1,0.1,0.3,0,0.3c-0.5,0-1,0-1.5,0s-1,0-1.5,0
				c-0.1,0-0.1-0.3,0-0.3h0.3c0.5-0.1,0.6-0.1,0.6-1.3v-4.3c0-1.2-0.1-1.2-0.6-1.3h-0.3c-0.1-0.1-0.1-0.3,0-0.3c0.5,0,1,0,1.5,0
				s1,0,1.5,0c0.1,0,0.1,0.2,0,0.3H50c-0.5,0.1-0.6,0.1-0.6,1.3V65.2z"/>
			<path class="st1" d="M58.4,64.9c0,0.3,0,1.8,0,2c-0.1,0.1-0.3,0.2-0.4,0.2c-0.2-0.2-0.5-0.6-1.3-1.6l-2.7-3
				c-0.7-0.8-1.1-1.3-1.3-1.4c0,0,0,0.1,0,0.7V64c0,0.9,0,1.9,0.2,2.3c0.1,0.2,0.3,0.3,0.6,0.3h0.3c0.1,0.1,0.1,0.3,0,0.3
				c-0.4,0-0.9,0-1.3,0c-0.5,0-0.8,0-1.2,0c-0.1-0.1-0.1-0.3,0-0.3l0.3-0.1c0.2,0,0.4-0.1,0.5-0.3c0.2-0.4,0.2-1.4,0.2-2.3v-2.7
				c0-0.9,0-1.1-0.4-1.4c-0.1-0.1-0.4-0.2-0.6-0.2h-0.2c-0.1-0.1-0.1-0.3,0-0.3c0.4,0,1.1,0,1.4,0c0.2,0,0.5,0,0.8,0
				c0.2,0.5,1.4,1.9,1.8,2.4l1.1,1.2c0.5,0.5,1.5,1.7,1.7,1.8c0,0,0-0.1,0-0.3v-2.2c0-0.9,0-1.9-0.2-2.3c-0.1-0.2-0.3-0.3-0.6-0.3
				h-0.3c-0.1-0.1-0.1-0.3,0-0.3c0.5,0,0.9,0,1.3,0c0.5,0,0.8,0,1.2,0c0.1,0.1,0.1,0.2,0,0.3L59,59.7c-0.2,0-0.4,0.1-0.5,0.3
				c-0.2,0.3-0.2,1.4-0.2,2.3v2.6H58.4z"/>
			<path class="st1" d="M61,61c0-1.1,0-1.2-0.5-1.3h-0.3c-0.1-0.1-0.1-0.3,0-0.3c0.7-0.1,1.7-0.1,2.6-0.1c0.9,0,1.7,0.1,2.2,0.4
				c0.6,0.3,1,0.8,1,1.7c0,1.1-0.8,1.6-1.4,1.8c-0.1,0,0,0.1,0,0.2c0.9,1.5,1.5,2.5,2,3c0.3,0.3,0.6,0.3,0.8,0.4
				c0.1,0,0.1,0.2,0,0.2s-0.4,0.1-0.8,0.1c-1.1,0-1.7-0.4-2.4-1.5c-0.3-0.5-0.6-1.1-0.9-1.6c-0.2-0.3-0.3-0.4-0.7-0.4
				c-0.3,0-0.4,0-0.4,0.2v1.5c0,1.2,0.1,1.2,0.6,1.3h0.3c0.1,0.1,0.1,0.3,0,0.3c-0.5,0-1,0-1.5,0s-1,0-1.5,0c-0.1,0-0.1-0.3,0-0.3
				h0.3c0.5-0.1,0.6-0.1,0.6-1.3L61,61L61,61z M62.4,62.7c0,0.4,0,0.4,0.5,0.4c1.1,0,1.6-0.6,1.6-1.6c0-0.9-0.6-1.7-1.6-1.7
				c-0.6,0-0.6,0-0.6,0.6L62.4,62.7L62.4,62.7z"/>
			<path class="st1" d="M69.6,64c-0.3,0-0.3,0-0.4,0.3l-0.5,1.4c-0.2,0.7-0.2,0.7,0.2,0.8l0.3,0.1c0.1,0.1,0.1,0.3,0,0.3
				c-0.4,0-0.7,0-1.2,0c-0.4,0-0.7,0-1.1,0c-0.1-0.1-0.1-0.2,0-0.3l0.3-0.1c0.3-0.1,0.5-0.2,0.6-0.5s0.3-0.8,0.6-1.4l1.6-4.1
				c0.1-0.4,0.3-0.6,0.2-0.8c0.4-0.1,0.8-0.5,0.8-0.5c0.1,0,0.2,0,0.2,0.1c0.2,0.5,0.3,1.1,0.5,1.6l1.7,4.8c0.3,0.8,0.3,0.8,0.9,0.9
				h0.2c0.1,0.1,0.1,0.3,0,0.3c-0.5,0-0.9,0-1.5,0c-0.5,0-1,0-1.4,0c-0.1-0.1-0.1-0.3,0-0.3h0.3c0.4-0.1,0.5-0.1,0.3-0.6l-0.5-1.6
				C71.5,64,71.4,64,71.1,64H69.6z M71,63.5c0.3,0,0.4,0,0.3-0.3l-0.5-1.4c-0.2-0.6-0.3-0.8-0.3-0.9l0,0c0,0.1-0.1,0.4-0.3,0.9
				l-0.5,1.3c-0.1,0.3-0.1,0.3,0.2,0.3H71V63.5z"/>
			<path class="st1" d="M82.1,64.9c0,0.3,0,1.8,0,2c-0.1,0.1-0.2,0.2-0.4,0.2c-0.2-0.2-0.5-0.6-1.3-1.6l-2.7-3.1
				c-0.7-0.8-1.1-1.3-1.3-1.4c0,0,0,0.1,0,0.7V64c0,0.9,0,1.9,0.2,2.3c0.1,0.2,0.3,0.3,0.6,0.3h0.3c0.1,0.1,0.1,0.3,0,0.3
				c-0.4,0-0.9,0-1.3,0c-0.5,0-0.8,0-1.2,0c-0.1-0.1-0.1-0.3,0-0.3l0.2-0.1c0.2,0,0.4-0.1,0.5-0.3c0.2-0.4,0.2-1.4,0.2-2.3v-2.7
				c0-0.9,0-1.1-0.4-1.4c-0.1-0.1-0.4-0.2-0.6-0.2h-0.2c-0.1-0.1-0.1-0.3,0-0.3c0.4,0,1.1,0,1.4,0c0.2,0,0.5,0,0.8,0
				c0.2,0.5,1.4,1.9,1.9,2.4l1.2,1.2c0.5,0.5,1.5,1.7,1.7,1.8c0,0,0-0.1,0-0.3v-2.2c0-0.9,0-1.9-0.2-2.3c-0.1-0.2-0.3-0.3-0.6-0.3
				h-0.3c-0.1-0.1-0.1-0.3,0-0.3c0.4,0,0.9,0,1.3,0c0.5,0,0.8,0,1.2,0c0.1,0.1,0.1,0.2,0,0.3l-0.3,0.1c-0.2,0-0.4,0.1-0.5,0.3
				c-0.2,0.3-0.2,1.4-0.2,2.3C82.1,62.3,82.1,64.9,82.1,64.9z"/>
			<path class="st1" d="M19.5,70.6c0-0.9-0.1-0.9-0.5-1h-0.1c-0.1-0.1,0-0.2,0-0.2c0.3,0,0.7,0,1.1,0s0.8,0,1.1,0
				c0.1,0,0.1,0.2,0,0.2h-0.2c-0.4,0-0.5,0.1-0.5,1v1.9c0,1.2,0.4,2.1,1.5,2.1s1.6-0.8,1.6-2.1v-1.1c0-0.6,0-1.4-0.2-1.7
				c-0.1-0.1-0.2-0.2-0.4-0.2h-0.2c-0.1-0.1-0.1-0.2,0-0.2c0.3,0,0.6,0,0.9,0s0.6,0,0.9,0c0.1,0,0.1,0.2,0,0.2l-0.2,0.1
				c-0.2,0-0.3,0.1-0.4,0.2c-0.1,0.3-0.1,1-0.1,1.7v1c0,0.8-0.1,1.5-0.5,1.9c-0.4,0.5-1.1,0.6-1.6,0.6c-0.8,0-1.3-0.2-1.7-0.5
				c-0.4-0.4-0.6-1-0.6-1.8v-2.1H19.5z"/>
			<path class="st1" d="M30.4,73.5c0,0.3,0,1.3,0,1.5c-0.1,0.1-0.2,0.1-0.3,0.1c-0.1-0.2-0.4-0.5-1-1.1l-2-2.2c-0.5-0.6-0.8-0.9-1-1
				c0,0,0,0.1,0,0.5v1.6c0,0.6,0,1.4,0.1,1.6c0.1,0.1,0.2,0.2,0.4,0.2h0.2c0.1,0.1,0.1,0.2,0,0.2c-0.3,0-0.6,0-1,0
				c-0.3,0-0.6,0-0.9,0c-0.1,0-0.1-0.2,0-0.2h0.2c0.2,0,0.3-0.1,0.4-0.2c0.1-0.3,0.1-1,0.1-1.6v-2c0-0.7,0-0.8-0.3-1
				c-0.1-0.1-0.3-0.1-0.4-0.2h-0.1c-0.1-0.1-0.1-0.2,0-0.2c0.3,0,0.8,0,1,0s0.4,0,0.6,0c0.1,0.4,1.1,1.4,1.4,1.7l0.8,0.9
				c0.4,0.4,1.1,1.3,1.2,1.3c0,0,0-0.1,0-0.2v-1.6c0-0.6,0-1.4-0.2-1.7c-0.1-0.1-0.2-0.2-0.4-0.2H29c-0.1-0.1-0.1-0.2,0-0.2
				c0.3,0,0.6,0,1,0s0.6,0,0.9,0c0.1,0,0.1,0.2,0,0.2h-0.2c-0.2,0-0.3,0.1-0.4,0.2c-0.1,0.3-0.1,1-0.1,1.7v1.9H30.4z"/>
			<path class="st1" d="M33.3,73.7c0,0.9,0.1,0.9,0.5,1H34c0.1,0.1,0,0.2,0,0.2c-0.4,0-0.7,0-1.1,0c-0.4,0-0.8,0-1.1,0
				c-0.1,0-0.1-0.2,0-0.2H32c0.4,0,0.5-0.1,0.5-1v-3.1c0-0.9-0.1-0.9-0.5-1h-0.2c-0.1-0.1-0.1-0.2,0-0.2c0.4,0,0.7,0,1.1,0
				c0.4,0,0.7,0,1.1,0c0.1,0,0.1,0.2,0,0.2h-0.2c-0.4,0.1-0.5,0.1-0.5,1C33.3,70.6,33.3,73.7,33.3,73.7z"/>
			<path class="st1" d="M38,72.9c-0.3,0.8-0.7,1.7-0.9,2.2c0,0-0.1,0-0.2,0c-0.1,0-0.1,0-0.2,0c-0.1-0.3-0.2-0.7-0.4-1.1L35,70.4
				c-0.2-0.6-0.3-0.7-0.6-0.7l-0.2-0.1c-0.1-0.1-0.1-0.2,0-0.2c0.3,0,0.7,0,1,0c0.4,0,0.7,0,1.1,0c0.1,0,0.1,0.2,0,0.2h-0.2
				c-0.2,0-0.3,0.1-0.3,0.2s0.1,0.3,0.4,1.1l0.6,1.5c0.1,0.4,0.4,0.9,0.5,1.1c0.5-1.1,1-2.2,1.4-3.3c0.1-0.3,0.1-0.4-0.1-0.5
				l-0.2-0.1c-0.1-0.1,0-0.2,0-0.2c0.3,0,0.6,0,0.9,0c0.3,0,0.6,0,0.8,0c0.1,0,0.1,0.2,0,0.2h-0.2c-0.2,0-0.4,0.1-0.5,0.3
				c-0.2,0.4-0.5,1-0.9,1.8L38,72.9z"/>
			<path class="st1" d="M40.7,70.6c0-0.9-0.1-0.9-0.5-1h-0.1c-0.1-0.1,0-0.2,0-0.2c0.3,0,0.7,0,1.1,0h1.6c0.5,0,1,0,1.1,0
				c0,0.1,0.1,0.8,0.1,1.2c0,0.1-0.2,0.1-0.3,0c-0.1-0.5-0.3-0.7-0.5-0.8c-0.2-0.1-0.4-0.1-0.7-0.1H42c-0.4,0-0.4,0-0.4,0.5v1.4
				c0,0.2,0,0.2,0.2,0.2h0.4c0.7,0,0.9,0,0.9-0.4l0.1-0.3c0.1-0.1,0.2-0.1,0.3,0c0,0.2,0,0.5,0,0.8s0,0.6,0,0.9c0,0.1-0.2,0.1-0.3,0
				l-0.1-0.3c-0.1-0.4-0.2-0.4-0.9-0.4h-0.4c-0.2,0-0.2,0-0.2,0.2v1.1c0,0.4,0,0.7,0.1,0.9c0.1,0.1,0.2,0.2,0.9,0.2
				c1.1,0,1.2-0.2,1.5-0.9c0.1-0.1,0.2,0,0.3,0c-0.1,0.3-0.2,1-0.4,1.2c-0.4,0-1.1,0-2.1,0h-1c-0.4,0-0.9,0-1.3,0
				c-0.1,0-0.1-0.2,0-0.2h0.3c0.4,0,0.5-0.1,0.5-1v-3H40.7z"/>
			<path class="st1" d="M45.6,70.7c0-0.8,0-0.9-0.4-0.9H45c-0.1-0.1-0.1-0.2,0-0.2c0.5,0,1.2-0.1,1.9-0.1c0.6,0,1.2,0.1,1.6,0.3
				c0.4,0.2,0.7,0.6,0.7,1.2c0,0.8-0.6,1.1-1,1.3c-0.1,0,0,0.1,0,0.2c0.7,1.1,1.1,1.8,1.5,2.2c0.2,0.2,0.5,0.2,0.6,0.3
				c0,0,0,0.1,0,0.2c-0.1,0-0.3,0-0.6,0c-0.8,0-1.2-0.3-1.7-1.1c-0.2-0.4-0.5-0.8-0.7-1.1c-0.1-0.3-0.2-0.3-0.5-0.3
				c-0.2,0-0.3,0-0.3,0.2V74c0,0.9,0.1,0.9,0.5,1h0.2c0.1,0.1,0.1,0.2,0,0.2c-0.4,0-0.7,0-1.1,0c-0.4,0-0.7,0-1.1,0
				c-0.1,0-0.1-0.2,0-0.2h0.2c0.4,0,0.5-0.1,0.5-1v-3.3H45.6z M46.5,71.9c0,0.3,0,0.3,0.4,0.3c0.8,0,1.2-0.4,1.2-1.2
				c0-0.7-0.4-1.2-1.2-1.2c-0.4,0-0.4,0-0.4,0.4V71.9z"/>
			<path class="st1" d="M50.6,74.7c-0.2-0.2-0.3-0.7-0.3-1.3c0.1-0.1,0.2-0.1,0.3,0c0.1,0.4,0.6,1.3,1.4,1.3c0.6,0,1-0.4,1-0.9
				s-0.2-0.9-0.9-1.2l-0.4-0.2c-0.6-0.4-1.2-0.9-1.2-1.6c0-0.8,0.6-1.5,1.8-1.5c0.4,0,0.8,0.1,1.1,0.2c0.1,0.2,0.2,0.7,0.2,1.1
				c0,0.1-0.2,0.1-0.3,0c-0.1-0.4-0.4-1-1.1-1c-0.7,0-0.9,0.4-0.9,0.9c0,0.4,0.2,0.7,0.8,1l0.5,0.3c0.5,0.3,1.2,0.8,1.2,1.7
				c0,1-0.7,1.6-1.9,1.6C51.2,75.1,50.8,74.8,50.6,74.7z"/>
			<path class="st1" d="M56.2,73.7c0,0.9,0.1,0.9,0.5,1h0.2c0.1,0.1,0.1,0.2,0,0.2c-0.4,0-0.8,0-1.1,0c-0.4,0-0.8,0-1.1,0
				c-0.1,0-0.1-0.2,0-0.2h0.2c0.4,0,0.5-0.1,0.5-1v-3.1c0-0.9-0.1-0.9-0.5-1h-0.2c-0.1-0.1,0-0.2,0-0.2c0.4,0,0.8,0,1.1,0
				c0.4,0,0.7,0,1.1,0c0.1,0,0.1,0.2,0,0.2h-0.2c-0.4,0.1-0.5,0.1-0.5,1V73.7z"/>
			<path class="st1" d="M59.6,70.1c0-0.4,0-0.4-0.2-0.4h-0.5c-0.8,0-1,0.1-1.3,0.8c-0.1,0-0.2,0-0.3-0.1c0.1-0.4,0.3-1,0.3-1.3
				c0,0,0,0,0.1,0h0.1c0,0.2,0.2,0.2,0.7,0.2H62c0.4,0,0.5,0,0.6-0.2h0.1h0.1c-0.1,0.3-0.2,1.1-0.1,1.3c0,0.1-0.2,0.1-0.3,0
				c-0.1-0.6-0.3-0.8-1.2-0.8h-0.5c-0.2,0-0.2,0-0.2,0.4v3.6c0,0.9,0.1,0.9,0.5,1h0.3c0.1,0.1,0.1,0.2,0,0.2c-0.5,0-0.9,0-1.2,0
				c-0.4,0-0.8,0-1.3,0c-0.1,0-0.1-0.2,0-0.2h0.4c0.4-0.1,0.5-0.1,0.5-0.9L59.6,70.1L59.6,70.1z"/>
			<path class="st1" d="M65,73.2c0-0.5,0-0.6-0.3-1l-1-2c-0.2-0.4-0.2-0.5-0.6-0.5h-0.2c-0.1-0.1,0-0.2,0-0.2c0.4,0,0.7,0,1.1,0
				s0.9,0,1.1,0c0.1,0,0.1,0.2,0,0.2h-0.3c-0.1,0-0.2,0-0.2,0.1s0,0.2,0.2,0.4c0.3,0.7,0.6,1.4,1,2c0.3-0.6,0.7-1.2,1-1.9
				c0.1-0.3,0.2-0.5,0.2-0.6s-0.1-0.1-0.2-0.1l-0.2-0.1c-0.1-0.1-0.1-0.2,0-0.2c0.4,0,0.6,0,0.9,0s0.5,0,0.8,0c0.1,0,0.1,0.2,0,0.2
				h-0.2c-0.4,0.1-0.5,0.2-0.9,1c-0.3,0.5-0.5,0.9-0.8,1.4c-0.3,0.4-0.3,0.6-0.3,1.2v0.5c0,0.9,0.1,0.9,0.5,1h0.3
				c0.1,0.1,0,0.2,0,0.2c-0.5,0-0.9,0-1.3,0s-0.8,0-1.2,0c-0.1,0-0.1-0.2,0-0.2h0.3c0.4-0.1,0.5-0.1,0.5-1v-0.4H65z"/>
		</g>
	</g>
	<g>
		<path class="st0" d="M102.5,18.6c-0.7,1.5-1.6,2.8-2.8,4.1l-0.3-0.3c1.4-1.8,2.5-3.7,3-5.7h-2.7l-0.1-0.4h2.9v-2.5h-0.2
			c-0.8,0.2-1.5,0.3-2.3,0.4l-0.1-0.3c2.1-0.4,3.7-1,4.8-1.7c0.7,0.4,1,0.7,1,0.9c0,0.1-0.1,0.1-0.3,0.1c-0.1,0-0.3,0-0.5-0.1
			c-0.4,0.1-0.9,0.3-1.5,0.4v2.7h1.3l0.7-1c0.4,0.4,0.6,0.8,0.9,1.1l-0.2,0.3h-2.7v1.3l0.1,0.1c1.6,0.8,2.4,1.5,2.4,2.2
			c0,0.3-0.2,0.5-0.5,0.5c-0.1,0-0.3-0.1-0.4-0.3c-0.4-0.7-0.9-1.4-1.6-2v6.5h-0.9C102.5,24.9,102.5,18.6,102.5,18.6z M106,22.9
			c0.9-3,1.6-6.4,2.1-10.2c1,0.2,1.5,0.4,1.5,0.6c0,0.1-0.2,0.2-0.6,0.3c-0.7,3.3-1.5,6.3-2.5,9.3c1.3-0.1,2.7-0.3,4.2-0.6
			c0,0,0,0,0.1,0l0,0c-0.4-1-0.9-2-1.6-3.2l0.3-0.2c1.2,1.3,2,2.6,2.4,3.7c0.2,0.5,0.3,0.9,0.3,1.2c0,0.5-0.2,0.7-0.5,0.7
			c-0.2,0-0.4-0.3-0.5-0.8c-0.1-0.3-0.2-0.7-0.3-1.1h-0.1c-1.8,0.5-3.6,0.8-5.4,1.1c-0.1,0.4-0.2,0.6-0.3,0.6
			c-0.2,0-0.4-0.5-0.6-1.4c0.6,0,1-0.1,1.3-0.1L106,22.9z"/>
		<path class="st0" d="M122.9,14.9c0.2,0.2,0.4,0.5,0.4,1c0,1.3-0.5,2.6-1.5,4.1c-0.5,0.6-1,1.2-1.7,1.5c-0.3,0.1-0.5,0.2-0.7,0.2
			c-0.3,0-0.6-0.1-0.9-0.4c-0.5-0.5-0.7-1.1-0.7-2c0-1.3,0.6-2.4,1.7-3.4s2.5-1.5,4-1.5c1.2,0,2.2,0.3,3.1,0.8
			c1.2,0.8,1.8,1.9,1.8,3.4s-0.6,2.7-1.8,3.5c-1,0.7-2.4,1.2-4.2,1.4v-0.3c3.3-0.7,5-2.3,5-4.7c0-1.2-0.4-2.2-1.2-2.9
			c-0.7-0.6-1.6-0.9-2.7-0.9C123.2,14.9,123,14.9,122.9,14.9z M120,20.9L120,20.9c0.7-0.5,1.3-1.3,1.7-2.4c0.4-1,0.6-2,0.6-3.1
			c0-0.2,0-0.3,0-0.3c-0.6,0.1-1.2,0.3-1.7,0.7c-1.4,1-2.1,2.2-2.1,3.7c0,0.7,0.2,1.2,0.5,1.5c0.1,0.1,0.3,0.2,0.4,0.2
			C119.6,21.1,119.8,21,120,20.9z"/>
		<path class="st0" d="M142.3,20.3c0.7-1.1,1.3-2.3,1.8-3.7c0.8,0.4,1.2,0.7,1.2,0.9c0,0.1-0.2,0.2-0.6,0.2
			c-0.6,1.3-1.2,2.4-1.9,3.4c0.5,0.7,1,1.3,1.5,1.8c0.3,0.3,0.5,0.4,0.7,0.4s0.4-0.9,0.7-2.7l0.4,0.2c-0.1,1-0.1,1.7-0.1,2.1
			c0,0.6,0.1,1,0.4,1.1c-0.1,0.4-0.4,0.6-0.8,0.6c-0.3,0-0.8-0.3-1.5-0.8c-0.6-0.5-1.2-1.2-1.8-2.2c-1.1,1.3-2.4,2.3-4.1,3l-0.2-0.3
			c1.5-0.8,2.8-2,3.9-3.4c-0.8-1.7-1.3-3.6-1.4-5.7h-4.6v2.3h2.3l0.5-0.6c0.6,0.5,0.9,0.8,0.9,0.9c0,0,0,0.1-0.1,0.2l-0.3,0.2
			c0,2-0.1,3.2-0.3,3.7s-0.7,0.7-1.3,0.7c0-0.5-0.5-0.8-1.4-0.9v-0.4c0.5,0.1,1,0.1,1.4,0.1s0.6-0.2,0.7-0.6c0.1-0.5,0.2-1.4,0.2-3
			H136v0.5c0,1.4-0.1,2.6-0.4,3.5c-0.3,1.1-0.8,2-1.6,2.9l-0.3-0.3c1-1.4,1.4-3.5,1.4-6.2v-4c0.4,0.2,0.7,0.3,1.1,0.5h4.4
			c0-0.5-0.1-1.2-0.1-1.8V12c0.9,0,1.4,0.2,1.4,0.3s-0.2,0.2-0.5,0.4v0.4c0,0.6,0,1.2,0.1,1.8h3.2l0.6-0.9c0.4,0.3,0.7,0.6,1,1
			l-0.1,0.3h-4.7C141.4,17.3,141.8,19,142.3,20.3z M142.2,12.4c0.6,0.2,1.1,0.5,1.4,0.9c0.3,0.3,0.4,0.6,0.4,0.8
			c0,0.3-0.2,0.5-0.5,0.5c-0.2,0-0.4-0.1-0.5-0.4c-0.2-0.6-0.5-1-1.1-1.5L142.2,12.4z"/>
		<path class="st0" d="M156.2,19c0.5,1.1,1.1,1.9,1.7,2.5c0.7-0.6,1.4-1.3,2.1-2.2c0.7,0.4,1.1,0.7,1.1,0.9c0,0.1-0.1,0.1-0.3,0.1
			c0,0-0.1,0-0.4,0c-0.7,0.6-1.4,1.1-2.2,1.4c1.1,0.9,2.5,1.5,4.4,2c-0.3,0.3-0.6,0.6-0.7,0.9c-2.3-0.7-4-1.8-5.1-3.3
			c-0.4-0.6-0.8-1.4-1.2-2.3h-2.3v4c1.3-0.2,2.5-0.5,3.6-0.8l0.1,0.4c-1.9,0.7-3.9,1.2-6,1.6c0,0.4-0.1,0.6-0.2,0.6
			c-0.2,0-0.4-0.4-0.7-1.3c0.9-0.1,1.6-0.2,2.2-0.3h0.2V19h-2.7l-0.1-0.4h2.8v-6.1c0.3,0.1,0.6,0.3,1,0.5h5.8l0.8-0.9
			c0.4,0.3,0.8,0.7,1.1,1l-0.2,0.2h-7.6v1.5h5.2l0.8-0.8c0.4,0.3,0.7,0.6,1.1,0.9l-0.1,0.3h-6.9v1.5h5.2l0.8-0.8
			c0.4,0.3,0.7,0.6,1,0.9l-0.1,0.3h-6.9v1.6h7.4l0.8-0.9c0.4,0.3,0.7,0.6,1.1,1l-0.2,0.3h-6.4V19z"/>
		<path class="st0" d="M166,22c1,0.3,1.7,0.8,2.3,1.4c0.3,0.3,0.4,0.6,0.4,1c0,0.5-0.2,0.7-0.7,0.7c-0.3,0-0.4-0.2-0.6-0.6
			c-0.3-0.8-0.9-1.6-1.7-2.3L166,22z"/>
		<path class="st0" d="M186,15l-0.2-0.3c-0.1-0.2-0.1-0.3-0.2-0.5c-0.1-0.2-0.1-0.3-0.1-0.3c-0.2-0.5-0.6-0.8-1.3-0.8v-0.2
			c0.5-0.2,0.8-0.3,1.1-0.3c0.5,0,0.8,0.2,0.9,0.6c0.2,0.7,0.4,1.2,0.5,1.5h0.1c0.1-0.1,0.3-0.2,0.5-0.2c0.4,0,0.7,0.1,0.7,0.3
			s-0.3,0.4-1,0.5c0.2,0.4,0.5,0.9,0.8,1.6c0.4-0.2,0.8-0.4,1.1-0.7c0.2-0.1,0.3-0.2,0.5-0.2c0.5,0,0.7,0.1,0.7,0.3
			c0,0.4-0.7,0.7-2,1.1c0.3,0.6,0.6,1.3,0.8,2c0.1,0.8,0,1.2-0.3,1.3c-0.3,0-0.9,0-1.6-0.1c-0.7-0.1-1.3-0.2-1.8-0.2
			c-1.2-0.1-1.8,0.3-2,1c-0.2,0.9,0.4,1.3,1.9,1.3c0.4,0,0.7-0.1,1-0.2c0.1,0,0.3,0,0.4,0c0.1,0,0.3,0,0.5,0.1s0.3,0.3,0.4,0.4
			c0.1,0.4-0.4,0.6-1.7,0.6c-2.3,0-3.3-0.7-3-2.2c0.3-1.1,1.1-1.6,2.6-1.5c0.4,0,1,0.1,1.8,0.2c0.7,0.1,1.1-0.1,1-0.6
			s-0.3-1.1-0.6-1.8c-1.2,0.3-2.5,0.5-3.8,0.5c-1.4,0-1.8-0.6-1.4-2h0.3c-0.2,0.9,0.2,1.4,1,1.4c1.4,0,2.6-0.2,3.6-0.5
			c-0.4-0.7-0.5-1.1-0.6-1.3l-0.2-0.4c-1.9,0.3-3.3-0.2-4.1-1.4l0.2-0.2C183.1,14.9,184.3,15.2,186,15z"/>
		<path class="st0" d="M195.5,19.2c0.4,0.2,0.6,0.4,0.8,0.4c0.3,0,0.6,0,0.9-0.2c2-1.3,3.6-2,4.6-2c0.9,0,1.6,0.2,2.1,0.6
			c0.6,0.5,0.9,1.1,0.9,1.9c0,1.1-0.6,2-1.7,2.7c-1,0.6-2.4,0.9-4.1,1l-0.1-0.2c3.4-0.5,5.1-1.7,5.1-3.5c0-0.7-0.2-1.2-0.7-1.5
			c-0.4-0.3-0.9-0.5-1.5-0.5c-1.2,0-2.7,0.8-4.8,2.5c-0.1,0.1-0.3,0.1-0.4,0.1c-0.4,0-0.8-0.4-1.2-1.1L195.5,19.2z"/>
		<path class="st0" d="M214.3,17.9c-0.6-0.4-1-1.5-1.1-3.4c0-0.4-0.1-0.7-0.2-0.9c-0.1-0.1-0.3-0.2-0.6-0.2v-0.2
			c0.3,0,0.6-0.1,0.8-0.1c0.7,0,1,0.3,1,1c0,0,0,0.1-0.1,0.4c0,0.1,0,0.2,0,0.4c0,0.3,0,0.8,0,1.3c0.1,1,0.4,1.5,0.8,1.4
			c0.1-0.1,0.6-0.3,1.3-0.6c0.3-0.1,0.6-0.1,0.8-0.1s0.4,0.2,0.5,0.5c0,0.2-0.2,0.4-0.6,0.5c-1,0.1-2.2,0.5-3.5,1.1s-2,1.3-2,2.1
			c0,1,0.9,1.5,2.8,1.5c1,0,1.8-0.1,2.5-0.3c0.3-0.1,0.5-0.1,0.6-0.1c0.2,0,0.4,0.1,0.6,0.2c0.1,0.1,0.2,0.2,0.2,0.4
			c0,0.2-0.2,0.3-0.6,0.4c-0.7,0.2-1.7,0.3-2.8,0.3c-2.6,0-3.9-0.7-3.9-2.2C211,20.2,212.1,19.1,214.3,17.9z"/>
		<path class="st0" d="M228.4,16c0.4-1.1,0.6-1.8,0.6-2c0-0.3-0.2-0.6-0.6-1l0.2-0.1c1,0.2,1.4,0.5,1.4,0.9c0,0.1,0,0.2-0.1,0.4
			s-0.2,0.5-0.4,1c-0.1,0.1-0.1,0.3-0.2,0.5c0,0.1-0.1,0.2-0.1,0.2c0.2-0.1,0.5-0.2,0.8-0.4c0.2-0.1,0.4-0.2,0.5-0.2
			c0.2,0,0.4,0.1,0.6,0.2c0.1,0.1,0.1,0.1,0.1,0.2c0,0.4-0.8,0.7-2.3,0.9c-1,2.5-1.9,4.6-2.8,6.2c-0.2,0.4-0.4,0.6-0.5,0.6
			s-0.2-0.1-0.3-0.2c-0.1-0.2-0.2-0.3-0.2-0.5s0.1-0.5,0.3-0.8c0.9-1.3,1.7-3,2.6-5.3c-0.8,0-1.2,0.1-1.4,0.1
			c-0.8,0-1.4-0.4-1.8-1.1l0.1-0.2c0.5,0.5,1.1,0.7,1.7,0.7C227.1,16.1,227.6,16.1,228.4,16z M231.2,20.3c-0.6,1.3-0.2,2,1.3,2.3
			c0.4,0,0.9,0.1,1.5,0.1c0.3,0,0.5,0,0.6,0c0.2,0,0.4,0.1,0.6,0.2c0.2,0.1,0.3,0.3,0.3,0.4c-0.1,0.3-0.9,0.4-2.4,0.2
			c-2.4-0.3-3.2-1.4-2.2-3.1L231.2,20.3z M233,18.6c0.8-0.2,1.3-0.5,1.5-0.8s0.1-0.6-0.2-0.9s-1-0.5-2-0.5v-0.2
			c1.1-0.2,2.1-0.1,2.8,0.5s0.7,1.1,0.1,1.5c-0.6,0.4-1.3,0.6-2.1,0.7L233,18.6z M233.7,13.9c1.1,0.1,1.8,0.5,2.3,1.2
			c0.1,0.3,0,0.5-0.3,0.5c-0.2,0-0.4-0.1-0.6-0.4c-0.4-0.5-0.8-0.9-1.4-1.1V13.9z M234.7,13.1c1.1-0.1,1.9,0.2,2.4,0.8
			c0.2,0.3,0.1,0.4-0.2,0.6c-0.2,0.1-0.4,0-0.7-0.3c-0.4-0.4-1-0.7-1.6-0.8v-0.3H234.7z"/>
		<path class="st0" d="M243.2,22.6c-0.1,0.2-0.2,0.2-0.3,0.2c-0.3,0-0.5-0.2-0.5-0.7c0-0.2,0.1-0.4,0.4-0.7c0.5-0.5,1.3-1.8,2.5-3.8
			v-0.3v-0.2v-0.7c-0.5,0.2-0.9,0.4-1.4,0.6c-0.3,0.1-0.5,0.2-0.6,0.2c-0.4,0-0.6-0.4-0.8-1.3l0.1-0.2c0.3,0.3,0.5,0.5,0.8,0.5
			c0.2,0,0.8-0.2,1.8-0.5c0-0.2,0-0.4,0-0.6v-0.3c0-0.6-0.1-1.1-0.2-1.2c-0.1-0.1-0.3-0.2-0.6-0.3v-0.2c1.2-0.1,1.7,0.1,1.7,0.7
			c0,0.1,0,0.3-0.1,0.6c-0.1,0.4-0.2,0.7-0.2,1.1v0.1c0.1,0,0.3,0.1,0.4,0.3c0.1,0.1,0.2,0.2,0.2,0.3c0,0.1-0.1,0.2-0.2,0.3
			c-0.2,0.2-0.4,0.5-0.6,0.8c0,0.4,0,0.7,0,0.8v0.2c1.9-2.4,3.3-3.6,4.3-3.6c0.9,0,1.3,0.6,1.2,1.8c0,0.2-0.1,0.8-0.2,1.8
			c-0.2,1.2-0.3,1.9-0.3,2.2c0,0.7,0.1,1.1,0.5,1.1c0.6,0,1.4-0.4,2.4-1.1l0.1,0.3c-1,1.2-1.8,1.7-2.6,1.7c-0.9,0-1.3-0.7-1.2-2.2
			c0-0.5,0.1-1.4,0.3-2.5c0.1-0.7,0.2-1.1,0.2-1.4c0-0.7-0.2-1-0.6-1c-0.7,0-2.1,1.2-4.1,3.6c0,1.2,0,2.3,0.1,3.3c0,0.1,0,0.3,0,0.4
			c0,0.3-0.1,0.5-0.2,0.7c-0.2,0.3-0.4,0.4-0.5,0.4c-0.2,0-0.3-0.2-0.4-0.5c-0.1-0.6-0.3-1.4-0.7-2.6
			C243.7,21.7,243.4,22.3,243.2,22.6z M245.3,18.7c-0.3,0.6-0.6,1.1-0.9,1.6l0.8,1.7C245.3,21.2,245.3,20.1,245.3,18.7z"/>
		<path class="st0" d="M263.4,16.3c0.2-0.6,0.4-1.2,0.4-1.7c0-0.6-0.3-0.9-1.1-0.9v-0.2c0.6-0.1,1.1-0.2,1.5-0.1s0.7,0.4,0.6,0.9
			c0,0.2-0.2,0.9-0.7,1.9c0.3,0,0.7,0,1.1,0c1,0,1.5,0.7,1.4,2.1c-0.2,2.1-0.8,3.6-1.7,4.5c-0.5,0.5-0.9,0.6-1.3,0.3
			c-0.4-0.3-0.8-0.9-1.2-1.9l0.1-0.3c0.6,0.8,1.1,1.2,1.4,1.2c0.3,0.1,0.5,0,0.7-0.2c0.7-0.8,1.1-2.2,1.3-3.9
			c0.1-0.9-0.1-1.3-0.7-1.3c-0.4,0-0.8,0.1-1.2,0.1c-0.6,1.4-1.4,3-2.6,4.8c-0.8,1.3-1.3,2-1.5,1.9c-0.3,0-0.4-0.2-0.3-0.6
			c0-0.3,0.2-0.6,0.6-1c0.6-0.7,1.4-1.8,2.2-3.3c0.4-0.7,0.7-1.3,0.9-1.7c-0.6,0.1-1.1,0.3-1.7,0.4c-0.2,0.1-0.4,0.1-0.5,0.1
			c-0.6,0-1-0.5-1.3-1.6l0.2-0.1c0.2,0.4,0.6,0.6,1.2,0.7c0.2,0,0.6,0,1.3-0.1l0.6-0.1L263.4,16.3z M268.2,19.8
			c0.9-0.1,1.5-0.4,1.7-0.7c0.3-0.4,0.2-0.8-0.2-1.4c-0.3-0.5-1.1-0.9-2.4-1.3l0.1-0.2c1.5,0.1,2.5,0.5,3.1,1.2s0.7,1.3,0.4,1.8
			s-0.9,0.8-1.7,0.9c-0.2,0-0.6,0-1.1,0.1L268.2,19.8z"/>
		<path class="st0" d="M282.1,14.9c0.2,0.2,0.4,0.5,0.4,1c0,1.3-0.5,2.6-1.5,4.1c-0.5,0.6-1,1.2-1.7,1.5c-0.3,0.1-0.5,0.2-0.7,0.2
			c-0.3,0-0.6-0.1-0.9-0.4c-0.5-0.5-0.7-1.1-0.7-2c0-1.3,0.6-2.4,1.7-3.4s2.5-1.5,4-1.5c1.2,0,2.2,0.3,3.1,0.8
			c1.2,0.8,1.8,1.9,1.8,3.4s-0.6,2.7-1.8,3.5c-1,0.7-2.4,1.2-4.2,1.4v-0.3c3.3-0.7,5-2.3,5-4.7c0-1.2-0.4-2.2-1.2-2.9
			c-0.7-0.6-1.6-0.9-2.7-0.9C282.4,14.9,282.2,14.9,282.1,14.9z M279.2,20.9h0.1c0.6-0.5,1.2-1.3,1.6-2.4c0.4-1,0.6-2,0.6-3.1
			c0-0.2,0-0.3,0-0.3c-0.6,0.1-1.2,0.3-1.7,0.7c-1.4,1-2.1,2.2-2.1,3.7c0,0.7,0.2,1.2,0.5,1.5c0.1,0.1,0.3,0.2,0.4,0.2
			C278.8,21.1,279,21,279.2,20.9z"/>
		<path class="st0" d="M296.9,16c0.4-1.1,0.6-1.8,0.6-2c0-0.3-0.2-0.6-0.6-1l0.2-0.1c1,0.2,1.4,0.5,1.4,0.9c0,0.1,0,0.2-0.1,0.4
			s-0.2,0.5-0.4,1c-0.1,0.1-0.1,0.3-0.2,0.5c0,0.1-0.1,0.2-0.1,0.2c0.2-0.1,0.5-0.2,0.8-0.4c0.2-0.1,0.4-0.2,0.5-0.2
			c0.2,0,0.4,0.1,0.6,0.2c0.1,0.1,0.1,0.1,0.1,0.2c0,0.4-0.8,0.7-2.3,0.9c-1,2.5-1.9,4.6-2.8,6.2c-0.2,0.4-0.4,0.6-0.5,0.6
			s-0.2-0.1-0.3-0.2c-0.1-0.2-0.2-0.3-0.2-0.5s0.1-0.5,0.3-0.8c0.9-1.3,1.7-3,2.6-5.3c-0.8,0-1.2,0.1-1.4,0.1
			c-0.8,0-1.4-0.4-1.8-1.1l0.1-0.2c0.5,0.5,1.1,0.7,1.7,0.7C295.6,16.1,296.1,16.1,296.9,16z M299.7,20.3c-0.6,1.3-0.2,2,1.3,2.3
			c0.4,0,0.9,0.1,1.5,0.1c0.3,0,0.5,0,0.6,0c0.2,0,0.4,0.1,0.6,0.2s0.3,0.3,0.3,0.4c-0.1,0.3-0.9,0.4-2.4,0.2
			c-2.4-0.3-3.2-1.4-2.2-3.1L299.7,20.3z M301.5,18.6c0.8-0.2,1.3-0.5,1.5-0.8s0.1-0.6-0.2-0.9c-0.3-0.3-1-0.5-2-0.5v-0.2
			c1.1-0.2,2.1-0.1,2.8,0.5c0.7,0.6,0.7,1.1,0.1,1.5s-1.3,0.6-2.1,0.7L301.5,18.6z"/>
		<path class="st0" d="M316.2,15.9c0.3-0.8,0.4-1.3,0.4-1.7s-0.2-0.7-0.7-1l0.2-0.1c1.1,0.1,1.6,0.4,1.6,1c0,0.3-0.2,0.9-0.6,1.9
			c0.9,0.1,1.6,0.3,2,0.7c0.8,0.6,1.3,1.5,1.3,2.6c0,1.2-0.5,2.2-1.4,2.9c-0.9,0.8-2.4,1.2-4.4,1.2l-0.1-0.2
			c1.4-0.2,2.5-0.6,3.4-1.1c1.1-0.7,1.6-1.6,1.6-2.8c0-1-0.3-1.7-0.9-2.2c-0.3-0.3-0.8-0.5-1.6-0.7c-0.5,1.2-1,2.2-1.6,2.9
			c-0.6,0.7-0.9,1.1-0.9,1.1s0.1,0.1,0.2,0.1c0.3,0.2,0.4,0.4,0.4,0.5c0,0.3-0.1,0.4-0.4,0.4c-0.1,0-0.3-0.1-0.4-0.2
			c-0.2-0.2-0.3-0.3-0.4-0.4c-0.9,0.8-1.7,1.3-2.5,1.3c-0.3,0-0.6-0.1-0.9-0.2c-0.4-0.3-0.7-0.8-0.7-1.4c0-1,0.5-1.9,1.5-2.8
			c0.4-0.3,0.7-0.6,0.9-0.8c-0.3-1.5-0.7-2.4-1-2.7l0.2-0.2c0.8,0.3,1.3,1.1,1.6,2.6C314,16.1,315.1,15.9,316.2,15.9z M313.5,20.5
			c-0.4-0.7-0.8-1.7-1.2-3c-1.1,0.8-1.6,1.8-1.7,3.1c0,0.7,0.4,1,1,1C312.2,21.6,312.8,21.2,313.5,20.5z M316,16.3
			c-1.1,0-2,0.2-2.9,0.7c0.2,1,0.5,2,1,2.8c0.2-0.2,0.5-0.6,0.8-1.1C315.2,18.1,315.6,17.4,316,16.3z"/>
		<path class="st0" d="M329.6,19.2l0.2,0.3c-0.7,1.8-1,3.1-1,3.8c0,0.5-0.2,0.6-0.7,0.1c-0.4-0.5-0.7-1.5-0.8-3.2
			c0-1,0.2-2.4,0.5-4.4c0.1-0.4,0.1-0.7,0.1-1c0-0.4-0.1-0.8-0.4-1.1l0.1-0.2c0.9,0.4,1.3,0.9,1.3,1.4c0,0.1-0.1,0.7-0.4,1.8
			c-0.4,1.3-0.6,2.5-0.6,3.5c0,0.6,0.1,1.1,0.2,1.5c0.1,0.3,0.3,0.1,0.5-0.6C329,20.5,329.3,19.8,329.6,19.2z M332.1,17.1
			c0.4-0.4,0.8-0.8,1.4-1.2c0.1-0.1,0.1-0.2,0-0.2s-0.2,0-0.4-0.1c-0.8-0.1-1.4-0.5-1.8-1l0.2-0.2c0.4,0.2,0.8,0.4,1.3,0.5
			s1.2,0.1,2.1,0c0.2,0,0.4,0,0.5,0c0.3,0,0.5,0.2,0.6,0.4c0.1,0.1,0.2,0.3,0.1,0.4c0,0.2-0.3,0.3-0.7,0.2c-0.8-0.1-1.8,0.3-3.2,1.3
			L332.1,17.1z M331.7,19.3c0,1.6,0.8,2.5,2.3,2.6c0.5,0.1,1,0.1,1.5,0c0.1,0,0.3,0,0.4,0c0.2,0,0.4,0.1,0.5,0.2
			c0.2,0.1,0.3,0.3,0.3,0.4c0,0.3-0.9,0.4-2.5,0.2c-1.1-0.1-1.9-0.4-2.4-0.9s-0.6-1.3-0.5-2.5L331.7,19.3z"/>
		<path class="st0" d="M344.3,21c0.4,0,0.8,0.1,1.1,0.3c0.7,0.4,1.1,1,1.1,1.9c0,0.6-0.2,1.1-0.6,1.5c-0.4,0.5-1,0.7-1.6,0.7
			c-0.3,0-0.7-0.1-0.9-0.2c-0.8-0.4-1.2-1.1-1.2-2c0-0.8,0.3-1.4,1-1.8C343.6,21.1,343.9,21,344.3,21z M344.3,21.6
			c-0.4,0-0.8,0.2-1.1,0.5c-0.3,0.3-0.4,0.7-0.4,1.1c0,0.3,0.1,0.6,0.3,0.8c0.3,0.5,0.7,0.7,1.3,0.7c0.4,0,0.7-0.1,1-0.4
			c0.4-0.3,0.5-0.7,0.5-1.2s-0.2-1-0.7-1.3C345,21.7,344.7,21.6,344.3,21.6z"/>
	</g>
</g>
</svg>
