<?xml version="1.0" encoding="utf-8"?>
<!-- Generator: Adobe Illustrator 23.0.4, SVG Export Plug-In . SVG Version: 6.00 Build 0)  -->
<svg version="1.1" id="レイヤー_1" xmlns="http://www.w3.org/2000/svg" xmlns:xlink="http://www.w3.org/1999/xlink" x="0px"
	 y="0px" viewBox="0 0 110 100" style="enable-background:new 0 0 110 100;" xml:space="preserve">
<style type="text/css">
	.st0{fill:#FFFFFF;}
</style>
<g>
	<g>
		<path class="st0" d="M14.3,85C14.3,85.1,14.3,85.1,14.3,85c-0.4,0.1-0.8,0.3-1.3,0.6s-0.9,0.8-1.2,1.4l-2.2,3.3V94
			c0,0.3,0,0.6,0.1,0.8c0.1,0.2,0.2,0.3,0.4,0.3c0.2,0.1,0.5,0.1,0.9,0.1c0,0,0.1,0,0.1,0.1s0,0.1-0.1,0.1c-0.4,0-0.6,0-0.9,0H8.8
			H7.6c-0.2,0-0.5,0-0.9,0c0,0-0.1,0-0.1-0.1s0-0.1,0.1-0.1c0.4,0,0.7,0,0.9-0.1C7.9,95,8,94.9,8.1,94.8s0.1-0.4,0.1-0.7v-3.5
			l-2.8-4c-0.4-0.5-0.7-0.9-1-1.1s-0.6-0.3-0.9-0.3c0,0-0.1,0-0.1-0.1s0-0.1,0.1-0.1s0.3,0,0.6,0h0.6c0.4,0,0.9,0,1.6,0h1
			c0,0,0,0,0,0.1s0,0.1,0,0.1c-0.5,0-0.8,0.1-0.8,0.4c0,0.1,0.1,0.3,0.2,0.5L9.4,90l2-3c0.3-0.4,0.4-0.8,0.4-1.1
			c0-0.2-0.1-0.4-0.2-0.5c-0.2-0.1-0.4-0.2-0.7-0.2c0,0-0.1,0-0.1-0.1s0-0.1,0.1-0.1h0.9c0.5,0,0.9,0,1.3,0c0.2,0,0.4,0,0.7,0
			L14.3,85C14.3,84.9,14.3,84.9,14.3,85z"/>
		<path class="st0" d="M15.3,95.1c-0.5-0.3-0.9-0.8-1.2-1.3s-0.4-1.1-0.4-1.8c0-0.7,0.2-1.3,0.6-1.9s0.9-0.9,1.4-1.1
			c0.6-0.3,1.2-0.4,1.8-0.4c0.7,0,1.3,0.2,1.8,0.5s0.9,0.8,1.2,1.3c0.3,0.5,0.4,1.1,0.4,1.7c0,0.7-0.2,1.3-0.5,1.8s-0.8,0.9-1.4,1.2
			s-1.2,0.4-1.9,0.4C16.4,95.6,15.8,95.4,15.3,95.1z M18.9,94.6c0.3-0.4,0.5-1.1,0.5-2c0-0.7-0.1-1.4-0.3-1.9
			c-0.2-0.6-0.5-1-0.9-1.3S17.3,89,16.8,89c-0.6,0-1,0.2-1.3,0.6s-0.5,1-0.5,1.9c0,0.7,0.1,1.3,0.3,1.9s0.5,1,0.9,1.4
			c0.4,0.3,0.8,0.5,1.3,0.5C18.2,95.3,18.6,95.1,18.9,94.6z"/>
		<path class="st0" d="M30,94.4c0,0,0.1,0,0.1,0.1s0,0.1,0,0.1l-2.2,1h-0.1c-0.1,0-0.2-0.1-0.3-0.4s-0.2-0.6-0.2-1
			c-0.9,0.9-1.8,1.4-2.7,1.4c-0.6,0-1.1-0.2-1.4-0.5c-0.3-0.4-0.5-0.9-0.5-1.5v-2.5c0-0.4,0-0.7-0.1-0.9s-0.2-0.3-0.4-0.3
			c-0.2,0-0.3,0-0.5,0.1l0,0c0,0-0.1,0-0.1-0.1s0-0.1,0-0.1l2.1-0.9h0.1h0.1L24,89v3.9c0,1.3,0.5,1.9,1.5,1.9c0.3,0,0.7-0.1,1-0.2
			c0.3-0.2,0.7-0.4,0.9-0.7V91c0-0.4,0-0.7-0.1-0.9c-0.1-0.2-0.2-0.3-0.4-0.3c-0.2,0-0.3,0-0.6,0.1l0,0c0,0-0.1,0-0.1-0.1
			s0-0.1,0-0.1l2.1-0.9h0.1h0.1l0.1,0.1v4.6c0,0.4,0,0.7,0.1,0.8s0.2,0.3,0.4,0.3S29.6,94.5,30,94.4L30,94.4z"/>
		<path class="st0" d="M30.4,85.8c-0.4,0.4-0.7,1-0.9,1.9c0,0,0,0-0.1,0s-0.1,0-0.1,0c0-0.3,0.1-0.8,0.2-1.5s0.1-1.2,0.1-1.6
			c0-0.1,0-0.1,0.1-0.1s0.1,0,0.1,0.1c0,0.2,0.3,0.4,1,0.4c1,0,2.2,0.1,3.5,0.1c0.7,0,1.4,0,2.2,0h1.2c0.4,0,0.7,0,0.9-0.1
			s0.3-0.2,0.4-0.3c0,0,0-0.1,0.1-0.1s0.1,0,0.1,0.1c0,0.3-0.1,0.8-0.1,1.5S39,87.5,39,87.9c0,0,0,0-0.1,0s-0.1,0-0.1,0
			c-0.1-0.9-0.3-1.5-0.7-1.9s-1-0.6-1.7-0.6c-0.4,0-0.7,0-0.9,0.1c-0.2,0-0.3,0.1-0.4,0.3C35,85.9,35,86.2,35,86.5V94
			c0,0.3,0,0.6,0.1,0.8c0.1,0.2,0.2,0.3,0.4,0.3c0.2,0.1,0.6,0.1,1.1,0.1c0,0,0,0,0,0.1s0,0.1,0,0.1c-0.4,0-0.7,0-1,0h-1.4h-1.3
			c-0.2,0-0.6,0-1,0c0,0-0.1,0-0.1-0.1s0-0.1,0.1-0.1c0.5,0,0.8,0,1-0.1s0.4-0.2,0.5-0.3c0.1-0.2,0.1-0.4,0.1-0.7v-7.8
			c0-0.3,0-0.5-0.1-0.7c-0.1-0.1-0.2-0.2-0.4-0.3s-0.5-0.1-0.9-0.1C31.4,85.2,30.8,85.4,30.4,85.8z"/>
		<path class="st0" d="M46.8,94.4C46.8,94.4,46.9,94.4,46.8,94.4c0.1,0.2,0.1,0.2,0.1,0.2l-2.2,1h-0.1c-0.1,0-0.2-0.1-0.3-0.4
			s-0.2-0.6-0.2-1c-0.9,0.9-1.8,1.4-2.7,1.4c-0.6,0-1.1-0.2-1.4-0.5c-0.3-0.4-0.5-0.9-0.5-1.5v-2.5c0-0.4,0-0.7-0.1-0.9
			s-0.2-0.3-0.4-0.3s-0.3,0-0.5,0.1l0,0c0,0-0.1,0-0.1-0.1s0-0.1,0-0.1l2.1-0.9h0.1h0.1l0.1,0.1v3.9c0,1.3,0.5,1.9,1.5,1.9
			c0.3,0,0.7-0.1,1-0.2c0.3-0.2,0.7-0.4,0.9-0.7V91c0-0.4,0-0.7-0.1-0.9c-0.1-0.2-0.2-0.3-0.4-0.3s-0.3,0-0.6,0.1l0,0
			c0,0-0.1,0-0.1-0.1s0-0.1,0-0.1l2.1-0.9h0.1h0.1l0.1,0.1v4.6c0,0.4,0,0.7,0.1,0.8s0.2,0.3,0.4,0.3C46.1,94.6,46.4,94.5,46.8,94.4
			L46.8,94.4z"/>
		<path class="st0" d="M53.8,89c0.4,0.2,0.8,0.6,1,1c0.3,0.5,0.4,1,0.4,1.7c0,0.8-0.2,1.5-0.5,2.1c-0.4,0.6-0.8,1-1.4,1.3
			c-0.6,0.3-1.2,0.4-1.9,0.4c-0.9,0-1.7-0.3-2.4-0.8l-1.4,0.6l0,0c0,0-0.1,0-0.1-0.1s0-0.1,0-0.1c0.3-0.2,0.6-0.5,0.7-0.7
			s0.2-0.6,0.2-1v-8.2c0-0.4,0-0.7-0.1-0.9c-0.1-0.2-0.2-0.3-0.4-0.3s-0.4,0.1-0.8,0.2l0,0c0,0-0.1,0-0.1-0.1s0-0.1,0-0.1l2.3-1.1
			h0.1h0.1l0.1,0.1v7c0.4-0.4,0.8-0.7,1.3-1c0.4-0.2,0.9-0.4,1.5-0.4C52.9,88.7,53.4,88.8,53.8,89z M53.4,94.5
			c0.3-0.5,0.5-1.2,0.5-2.1c0-1-0.2-1.8-0.6-2.3c-0.4-0.5-0.9-0.8-1.6-0.8c-0.6,0-1.3,0.3-2.1,1V93c0,0.5,0.1,1,0.4,1.3
			c0.2,0.3,0.5,0.6,0.9,0.7c0.3,0.2,0.7,0.2,1,0.2C52.6,95.3,53,95,53.4,94.5z"/>
		<path class="st0" d="M62.3,94.4C62.4,94.4,62.4,94.4,62.3,94.4c0.1,0.1,0.1,0.1,0.1,0.2c-0.4,0.4-0.8,0.6-1.2,0.8
			c-0.4,0.2-0.9,0.2-1.4,0.2c-0.7,0-1.3-0.1-1.8-0.4s-0.9-0.7-1.2-1.2s-0.4-1-0.4-1.6c0-0.7,0.2-1.3,0.5-1.8s0.8-1,1.4-1.3
			s1.2-0.5,1.9-0.5s1.2,0.1,1.5,0.4c0.4,0.3,0.5,0.7,0.5,1.2c0,0.3-0.1,0.4-0.2,0.4h-0.8h-3.4c0,0.2-0.1,0.5-0.1,0.8
			c0,1,0.2,1.7,0.7,2.3c0.5,0.6,1.1,0.9,2,0.9C61.2,94.9,61.8,94.7,62.3,94.4L62.3,94.4z M58.6,89.5c-0.3,0.3-0.5,0.6-0.6,1.1l3-0.1
			c0-0.4-0.1-0.8-0.3-1.1c-0.2-0.3-0.5-0.4-0.9-0.4C59.3,89.1,58.9,89.2,58.6,89.5z"/>
		<path class="st0" d="M65.5,85.2c0.1,0.5,0.5,0.8,1,0.8c0.3,0,0.8-0.1,1.1-0.1c1.1-0.2,4.4-0.8,6.2-1c0.4-0.1,0.8-0.2,1-0.4
			c1.2,0.2,1.7,0.5,1.7,1c0,0.3-0.3,0.3-0.8,0.3c-0.3,0-0.6,0-0.9,0c-1.6,0-3.3,1.4-4,2.6c-0.4,0.7-0.8,1.9-0.8,3
			c0,1.8,1.1,2.4,2.6,2.6c0.4,0.1,0.8,0,1.1,0.1c0.5,0.2,0.7,0.5,0.7,0.9c0,0.3-0.3,0.4-0.7,0.4c-0.1,0-0.2,0-0.4,0
			c-3.3-0.4-4.2-1.5-4.2-3.9c0-2.6,1.8-4.7,3.9-5.9l0,0c-1.2,0.1-4.7,0.8-5.7,1.5c-0.2,0.1-0.4,0.3-0.7,0.3c-0.6,0-1.5-0.8-1.5-1.4
			c0-0.3,0.1-0.5,0.3-0.7L65.5,85.2z M73.4,88.1c1.5,0.5,2.1,1.2,2.1,1.6c0,0.3-0.2,0.4-0.4,0.4c-0.2,0-0.4-0.1-0.5-0.4
			c-0.2-0.4-0.7-1.1-1.4-1.5L73.4,88.1z M74.9,86.9c1.5,0.5,2.1,1.2,2.1,1.6c0,0.3-0.2,0.4-0.4,0.4c-0.3,0-0.4-0.1-0.5-0.4
			c-0.2-0.4-0.7-1.1-1.4-1.5L74.9,86.9z"/>
		<path class="st0" d="M92.3,93v1.8c0.5,0.2,0.5,0.2,0.5,0.4c0,0.4-0.4,0.7-1.7,0.7h-2.5c-1.3,0-1.6-0.2-1.6-1.3v-3.3h-1.5
			c-0.1,0.1-0.2,0.1-0.5,0.2c-0.3,2.2-1.3,4-5.1,4.8L79.8,96c3-0.8,3.9-2.6,4.1-4.7h-0.8v0.4c0,0-0.1,0.4-1.1,0.4v-8.7l1.2,0.5h6.1
			l0.5-0.7l1.4,1c-0.1,0.1-0.3,0.2-0.6,0.3v7c0,0-0.3,0.4-1.1,0.4v-0.7h-0.9c-0.1,0.1-0.2,0.1-0.4,0.1v3.2c0,0.3,0,0.3,0.5,0.3h2.4
			c0.3,0,0.4,0,0.5-0.2s0.3-0.9,0.5-1.7L92.3,93L92.3,93z M89.4,84.3h-6.3v2h6.3V84.3z M89.4,88.6v-2h-6.3v2H89.4z M83.1,91h6.3v-2
			h-6.3V91z"/>
		<path class="st0" d="M99.5,89.8c1.1-0.6,2.4-1,3.4-1c2.7,0,3.6,1.5,3.6,3.2c0,2-1.7,3.5-4.6,3.5c-1.8,0-2.9-0.8-2.9-1.8
			c0-0.9,0.8-1.7,2.1-1.7c1.3,0,2.6,1,2.6,2c0,0.1,0,0.2-0.1,0.3c1-0.4,1.7-1.4,1.7-2.4c0-1.6-0.8-2.6-2.6-2.6c-0.9,0-3.5,0.6-5,2.8
			c-0.2,0.3-0.4,0.7-0.8,0.7c-0.3,0-0.6-0.4-0.6-0.7c0-0.5,0.4-0.9,0.7-1.1c1.2-1.1,4-4,5.6-5.6c0.1-0.1,0.1-0.2,0.1-0.2
			c0-0.1,0-0.1-0.1-0.1c-0.2,0-2.4,0.4-3.1,0.8c-0.3,0.2-0.4,0.3-0.7,0.3c-0.6,0-1.3-0.7-1.3-1.3c0-0.2,0.1-0.5,0.4-0.7H98
			c0,0.5,0.3,0.8,0.8,0.8c0.9,0,3.2-0.4,3.7-0.6c0.3-0.1,0.4-0.4,0.6-0.4c0.6,0,1.4,0.7,1.4,1c0,0.4-0.4,0.4-1,0.7
			C102.2,87,100.5,88.7,99.5,89.8L99.5,89.8z M101.9,94.6c0.3,0,0.7,0,1-0.1c-0.1-0.1-0.1-0.1-0.1-0.3c-0.1-0.9-0.9-1.7-1.8-1.7
			c-0.7,0-1.2,0.4-1.2,1C99.7,94.5,101,94.6,101.9,94.6z"/>
	</g>
	<path class="st0" d="M55,3.8c-19.3,0-35,15.7-35,35s15.7,35,35,35s35-15.7,35-35S74.3,3.8,55,3.8z M44.4,51.6V26
		c0-1.5,1.7-2.5,3-1.7l22.2,12.8c1.3,0.8,1.3,2.7,0,3.5L47.4,53.3C46.1,54.1,44.4,53.2,44.4,51.6z"/>
</g>
</svg>
